<svg width="88" height="88" viewBox="0 0 88 88" fill="none" xmlns="http://www.w3.org/2000/svg">
<circle cx="44" cy="44" r="44" fill="white"/>
<path d="M75.9964 32.4868V56.0007C75.9964 58.1223 75.1536 60.1569 73.6534 61.6571C72.1532 63.1572 70.1185 64 67.9969 64H19.9996C17.8779 64 15.8432 63.1572 14.343 61.6571C12.8428 60.1569 12 58.1223 12 56.0007V32.0029C12 29.8813 12.8428 27.8467 14.343 26.3465C15.8432 24.8464 17.8779 24.0036 19.9996 24.0036H67.5129L63.5131 28.0032H19.9996C18.9387 28.0032 17.9214 28.4246 17.1713 29.1747C16.4212 29.9248 15.9998 30.9421 15.9998 32.0029V56.0007C15.9998 57.0615 16.4212 58.0788 17.1713 58.8289C17.9214 59.579 18.9387 60.0004 19.9996 60.0004H67.9969C69.0577 60.0004 70.075 59.579 70.8251 58.8289C71.5752 58.0788 71.9966 57.0615 71.9966 56.0007V36.4865L75.9964 32.4868ZM19.9996 38.0023C19.9996 37.4719 20.2103 36.9633 20.5853 36.5882C20.9604 36.2132 21.469 36.0025 21.9994 36.0025H29.999C30.5294 36.0025 31.0381 36.2132 31.4131 36.5882C31.7882 36.9633 31.9989 37.4719 31.9989 38.0023C31.9989 38.5327 31.7882 39.0414 31.4131 39.4164C31.0381 39.7915 30.5294 40.0021 29.999 40.0021H21.9994C21.469 40.0021 20.9604 39.7915 20.5853 39.4164C20.2103 39.0414 19.9996 38.5327 19.9996 38.0023ZM19.9996 50.0013C19.9996 49.4709 20.2103 48.9622 20.5853 48.5872C20.9604 48.2121 21.469 48.0014 21.9994 48.0014H39.9984C40.5288 48.0014 41.0375 48.2121 41.4126 48.5872C41.7876 48.9622 41.9983 49.4709 41.9983 50.0013C41.9983 50.5316 41.7876 51.0403 41.4126 51.4153C41.0375 51.7904 40.5288 52.0011 39.9984 52.0011H21.9994C21.469 52.0011 20.9604 51.7904 20.5853 51.4153C20.2103 51.0403 19.9996 50.5316 19.9996 50.0013ZM75.4125 24.5875C75.5987 24.7733 75.7465 24.994 75.8473 25.2369C75.9481 25.4799 76 25.7403 76 26.0034C76 26.2664 75.9481 26.5269 75.8473 26.7699C75.7465 27.0128 75.5987 27.2335 75.4125 27.4193L51.4138 51.4171C51.0383 51.7926 50.5289 52.0036 49.9979 52.0036C49.4668 52.0036 48.9575 51.7926 48.582 51.4171C48.2064 51.0416 47.9955 50.5323 47.9955 50.0013C47.9955 49.4702 48.2064 48.9609 48.582 48.5854L72.5806 24.5875C72.7664 24.4013 72.9871 24.2535 73.23 24.1527C73.473 24.0519 73.7335 24 73.9965 24C74.2596 24 74.5201 24.0519 74.763 24.1527C75.006 24.2535 75.2267 24.4013 75.4125 24.5875Z" fill="#492D28"/>
</svg>
