<svg width="23" height="23" viewBox="0 0 23 23" fill="none" xmlns="http://www.w3.org/2000/svg">
<circle cx="11.5" cy="11.5" r="11.5" fill="#F2F2F2"/>
<path fill-rule="evenodd" clip-rule="evenodd" d="M9.45037 4.60004C8.56841 4.60011 7.69926 4.81867 6.91542 5.23747C6.13159 5.65627 5.45581 6.26317 4.94445 7.00753C4.4331 7.7519 4.101 8.61214 3.97587 9.5165C3.85074 10.4209 3.93621 11.3431 4.22513 12.2063C4.51406 13.0695 4.99808 13.8485 5.63679 14.4786C6.27551 15.1086 7.05041 15.5712 7.89684 15.8279C8.74327 16.0846 9.63669 16.1279 10.5026 15.9541C11.3684 15.7804 12.1816 15.3947 12.8743 14.8292L15.2507 17.2908C15.3734 17.4136 15.5378 17.4815 15.7084 17.48C15.879 17.4785 16.0422 17.4076 16.1628 17.2826C16.2835 17.1576 16.3519 16.9886 16.3534 16.8119C16.3549 16.6351 16.2893 16.4649 16.1708 16.3377L13.7944 13.8761C14.4373 13.0313 14.8376 12.0161 14.9495 10.9466C15.0613 9.87711 14.8803 8.79661 14.427 7.82874C13.9738 6.86087 13.2666 6.04474 12.3865 5.47375C11.5064 4.90275 10.4889 4.59996 9.45037 4.60004ZM5.22084 10.3294C5.22084 9.16738 5.66645 8.05299 6.45964 7.23135C7.25283 6.40971 8.32863 5.94811 9.45037 5.94811C10.5721 5.94811 11.6479 6.40971 12.4411 7.23135C13.2343 8.05299 13.6799 9.16738 13.6799 10.3294C13.6799 11.4913 13.2343 12.6057 12.4411 13.4274C11.6479 14.249 10.5721 14.7106 9.45037 14.7106C8.32863 14.7106 7.25283 14.249 6.45964 13.4274C5.66645 12.6057 5.22084 11.4913 5.22084 10.3294Z" fill="#A7A7A7"/>
</svg>
