<svg xmlns="http://www.w3.org/2000/svg" width="19" height="18" viewBox="0 0 19 18" fill="none">
<path d="M0.5 17.077V1.616C0.5 1.15533 0.654333 0.771 0.963 0.463C1.27167 0.155 1.65567 0.000666667 2.115 0H16.885C17.345 0 17.729 0.154333 18.037 0.463C18.345 0.771667 18.4993 1.156 18.5 1.616V12.385C18.5 12.845 18.3457 13.2293 18.037 13.538C17.7283 13.8467 17.3443 14.0007 16.885 14H3.577L0.5 17.077ZM3.15 13H16.885C17.0383 13 17.1793 12.936 17.308 12.808C17.4367 12.68 17.5007 12.539 17.5 12.385V1.615C17.5 1.46167 17.436 1.32067 17.308 1.192C17.18 1.06333 17.039 0.999333 16.885 1H2.115C1.96167 1 1.82067 1.064 1.692 1.192C1.56333 1.32 1.49933 1.461 1.5 1.615V14.645L3.15 13Z" fill="#888888"/>
</svg>