<svg width="18" height="25" viewBox="0 0 18 25" fill="none" xmlns="http://www.w3.org/2000/svg">
<path d="M12.6 9.3421H9.59996V6.1842H8.39996V9.3421H5.39996V10.6053H8.39996V13.7632H9.59996V10.6053H12.6V9.3421Z" fill="#888888"/>
<path fill-rule="evenodd" clip-rule="evenodd" d="M0 3.65789C0 2.82037 0.316071 2.01715 0.87868 1.42493C1.44129 0.832706 2.20435 0.5 3 0.5H17.4C17.5591 0.5 17.7117 0.566541 17.8243 0.684985C17.9368 0.803429 18 0.964074 18 1.13158V20.0789C18 20.2465 17.9368 20.4071 17.8243 20.5255C17.7117 20.644 17.5591 20.7105 17.4 20.7105H3C2.52261 20.7105 2.06477 20.9102 1.72721 21.2655C1.38964 21.6208 1.2 22.1027 1.2 22.6053V23.2368H17.4V24.5H0.6C0.44087 24.5 0.288258 24.4335 0.175736 24.315C0.0632142 24.1966 0 24.0359 0 23.8684V3.65789ZM3 19.4474C2.35075 19.4465 1.71888 19.6682 1.2 20.0789V3.65789C1.2 3.15538 1.38964 2.67345 1.72721 2.31811C2.06477 1.96278 2.52261 1.76316 3 1.76316H16.8V19.4474H3Z" fill="#888888"/>
</svg>
