<svg xmlns="http://www.w3.org/2000/svg" width="24" height="25" viewBox="0 0 24 25" fill="none">
<path fill-rule="evenodd" clip-rule="evenodd" d="M10.5 2.5C9.1446 2.50012 7.80887 2.82436 6.60427 3.44569C5.39966 4.06702 4.3611 4.96742 3.57525 6.07175C2.78939 7.17609 2.27902 8.45235 2.08672 9.79404C1.89442 11.1357 2.02576 12.504 2.46979 13.7846C2.91382 15.0652 3.65766 16.2211 4.63925 17.1557C5.62084 18.0904 6.81171 18.7768 8.11252 19.1576C9.41333 19.5384 10.7864 19.6026 12.117 19.3449C13.4477 19.0872 14.6975 18.515 15.762 17.676L19.414 21.328C19.6026 21.5102 19.8552 21.611 20.1174 21.6087C20.3796 21.6064 20.6304 21.5012 20.8158 21.3158C21.0012 21.1304 21.1064 20.8796 21.1087 20.6174C21.111 20.3552 21.0102 20.1026 20.828 19.914L17.176 16.262C18.164 15.0086 18.7792 13.5024 18.9511 11.9157C19.123 10.3291 18.8448 8.72602 18.1482 7.29009C17.4517 5.85417 16.3649 4.64336 15.0123 3.79623C13.6597 2.94911 12.096 2.49989 10.5 2.5ZM4.00001 11C4.00001 9.27609 4.68483 7.62279 5.90382 6.40381C7.1228 5.18482 8.7761 4.5 10.5 4.5C12.2239 4.5 13.8772 5.18482 15.0962 6.40381C16.3152 7.62279 17 9.27609 17 11C17 12.7239 16.3152 14.3772 15.0962 15.5962C13.8772 16.8152 12.2239 17.5 10.5 17.5C8.7761 17.5 7.1228 16.8152 5.90382 15.5962C4.68483 14.3772 4.00001 12.7239 4.00001 11Z" fill="black"/>
</svg>