<svg width="24" height="25" viewBox="0 0 24 25" fill="none" xmlns="http://www.w3.org/2000/svg">
<path fill-rule="evenodd" clip-rule="evenodd" d="M22.6667 8.72501H1.33333V23.1854H22.6667V8.72501ZM1.33333 7.41043C0.979711 7.41043 0.640573 7.54893 0.390524 7.79546C0.140476 8.042 0 8.37636 0 8.72501V23.1854C0 23.5341 0.140476 23.8684 0.390524 24.115C0.640573 24.3615 0.979711 24.5 1.33333 24.5H22.6667C23.0203 24.5 23.3594 24.3615 23.6095 24.115C23.8595 23.8684 24 23.5341 24 23.1854V8.72501C24 8.37636 23.8595 8.042 23.6095 7.79546C23.3594 7.54893 23.0203 7.41043 22.6667 7.41043H1.33333Z" fill="#888888"/>
<path d="M22.9667 8.72501V8.42501H22.6667H1.33333H1.03333V8.72501V23.1854V23.4854H1.33333H22.6667H22.9667V23.1854V8.72501ZM0.601149 8.00909C0.79462 7.81834 1.05792 7.71043 1.33333 7.71043H22.6667C22.9421 7.71043 23.2054 7.81834 23.3989 8.00909C23.5922 8.1997 23.7 8.45731 23.7 8.72501V23.1854C23.7 23.4531 23.5922 23.7107 23.3989 23.9013C23.2054 24.0921 22.9421 24.2 22.6667 24.2H1.33333C1.05792 24.2 0.794621 24.0921 0.601149 23.9013C0.407821 23.7107 0.3 23.4531 0.3 23.1854V8.72501C0.3 8.45731 0.407821 8.1997 0.601149 8.00909Z" stroke="#888888" stroke-opacity="0.533333" stroke-width="0.6"/>
<path fill-rule="evenodd" clip-rule="evenodd" d="M6.6667 12.0115C6.6667 11.8371 6.73693 11.67 6.86196 11.5467C6.98698 11.4234 7.15655 11.3542 7.33336 11.3542H16.6667C16.8435 11.3542 17.0131 11.4234 17.1381 11.5467C17.2631 11.67 17.3334 11.8371 17.3334 12.0115C17.3334 12.1858 17.2631 12.353 17.1381 12.4762C17.0131 12.5995 16.8435 12.6688 16.6667 12.6688H7.33336C7.15655 12.6688 6.98698 12.5995 6.86196 12.4762C6.73693 12.353 6.6667 12.1858 6.6667 12.0115ZM5.33336 15.9552C5.33336 15.7809 5.4036 15.6137 5.52862 15.4904C5.65365 15.3672 5.82322 15.2979 6.00003 15.2979H18C18.1768 15.2979 18.3464 15.3672 18.4714 15.4904C18.5965 15.6137 18.6667 15.7809 18.6667 15.9552C18.6667 16.1295 18.5965 16.2967 18.4714 16.42C18.3464 16.5433 18.1768 16.6125 18 16.6125H6.00003C5.82322 16.6125 5.65365 16.5433 5.52862 16.42C5.4036 16.2967 5.33336 16.1295 5.33336 15.9552ZM6.6667 19.899C6.6667 19.7246 6.73693 19.5575 6.86196 19.4342C6.98698 19.3109 7.15655 19.2417 7.33336 19.2417H16.6667C16.8435 19.2417 17.0131 19.3109 17.1381 19.4342C17.2631 19.5575 17.3334 19.7246 17.3334 19.899C17.3334 20.0733 17.2631 20.2405 17.1381 20.3637C17.0131 20.487 16.8435 20.5563 16.6667 20.5563H7.33336C7.15655 20.5563 6.98698 20.487 6.86196 20.3637C6.73693 20.2405 6.6667 20.0733 6.6667 19.899ZM14.3574 2.77653C14.0478 2.47126 13.6803 2.22911 13.2758 2.06389C12.8714 1.89868 12.4378 1.81364 12 1.81364C11.5622 1.81364 11.1287 1.89868 10.7242 2.06389C10.3197 2.22911 9.95224 2.47126 9.6427 2.77653L4.47203 7.87579C4.34685 7.99922 4.17706 8.06855 4.00003 8.06855C3.82299 8.06855 3.65321 7.99922 3.52803 7.87579C3.40285 7.75237 3.33252 7.58498 3.33252 7.41043C3.33252 7.32401 3.34979 7.23843 3.38333 7.15858C3.41688 7.07873 3.46604 7.00618 3.52803 6.94507L8.70136 1.84712C9.57649 0.98456 10.7633 0.5 12.0007 0.5C13.2381 0.5 14.4249 0.98456 15.3 1.84712L20.472 6.94639C20.5339 7.0075 20.583 7.08003 20.6165 7.15985C20.6499 7.23966 20.6671 7.32519 20.6671 7.41155C20.667 7.49792 20.6497 7.58343 20.6161 7.66319C20.5825 7.74296 20.5333 7.81543 20.4714 7.87645C20.4094 7.93748 20.3358 7.98587 20.2549 8.01886C20.1739 8.05186 20.0872 8.06881 19.9996 8.06875C19.912 8.06869 19.8252 8.05161 19.7443 8.01851C19.6634 7.9854 19.5899 7.93691 19.528 7.87579L14.3574 2.77653Z" fill="#888888"/>
<path d="M8.91193 2.0608L8.91195 2.06078C9.73051 1.25398 10.8415 0.8 12.0007 0.8C13.1599 0.8 14.2709 1.25397 15.0894 2.06075C15.0894 2.06076 15.0894 2.06077 15.0894 2.06078L20.2613 7.15986C20.2951 7.1933 20.3217 7.23275 20.3398 7.27585C20.3579 7.31894 20.3671 7.36497 20.3671 7.41134C20.367 7.45771 20.3577 7.50373 20.3396 7.5468C20.3215 7.58988 20.2948 7.62929 20.2609 7.66268C20.227 7.69607 20.1865 7.72277 20.1416 7.74105C20.0968 7.75934 20.0485 7.76878 19.9998 7.76875C19.951 7.76871 19.9028 7.7592 19.8579 7.74086C19.8131 7.72251 19.7727 7.69575 19.7388 7.66232L19.7387 7.66219L14.568 2.56293C14.2304 2.23 13.8299 1.96613 13.3893 1.78617C12.9487 1.60621 12.4767 1.51364 12 1.51364C11.5234 1.51364 11.0513 1.60621 10.6108 1.78617C10.1702 1.96613 9.76963 2.23 9.43204 2.56293L4.2614 7.66217C4.26139 7.66218 4.26139 7.66218 4.26138 7.66219C4.19277 7.72982 4.09884 7.76855 4.00003 7.76855C3.9012 7.76855 3.80726 7.72981 3.73865 7.66217C3.67019 7.59467 3.63252 7.50403 3.63252 7.41043C3.63252 7.364 3.64179 7.31792 3.65991 7.27478C3.67803 7.23166 3.7047 7.19219 3.7386 7.15875C3.73862 7.15874 3.73863 7.15872 3.73865 7.1587L8.91193 2.0608ZM7.07258 11.7603L6.86196 11.5467L7.07258 11.7603C7.14103 11.6928 7.23476 11.6542 7.33336 11.6542H16.6667C16.7653 11.6542 16.859 11.6928 16.9275 11.7603C16.9958 11.8277 17.0334 11.9181 17.0334 12.0115C17.0334 12.1048 16.9958 12.1953 16.9275 12.2626C16.859 12.3301 16.7653 12.3688 16.6667 12.3688H7.33336C7.23476 12.3688 7.14103 12.3301 7.07258 12.2626C7.00428 12.1953 6.9667 12.1048 6.9667 12.0115C6.9667 11.9181 7.00428 11.8277 7.07258 11.7603ZM5.63336 15.9552C5.63336 15.8618 5.67095 15.7714 5.73925 15.7041C5.8077 15.6366 5.90142 15.5979 6.00003 15.5979H18C18.0986 15.5979 18.1924 15.6366 18.2608 15.7041C18.3291 15.7714 18.3667 15.8618 18.3667 15.9552C18.3667 16.0486 18.3291 16.139 18.2608 16.2064C18.1924 16.2738 18.0986 16.3125 18 16.3125H6.00003C5.90142 16.3125 5.8077 16.2738 5.73925 16.2064C5.67094 16.139 5.63336 16.0486 5.63336 15.9552ZM6.9667 19.899C6.9667 19.8056 7.00428 19.7152 7.07258 19.6478L6.86196 19.4342L7.07258 19.6478C7.14103 19.5803 7.23476 19.5417 7.33336 19.5417H16.6667C16.7653 19.5417 16.859 19.5803 16.9275 19.6478L17.1381 19.4342L16.9275 19.6478C16.9958 19.7152 17.0334 19.8056 17.0334 19.899C17.0334 19.9923 16.9958 20.0828 16.9275 20.1501C16.859 20.2176 16.7653 20.2563 16.6667 20.2563H7.33336C7.23476 20.2563 7.14103 20.2176 7.07258 20.1501C7.00428 20.0828 6.9667 19.9923 6.9667 19.899Z" stroke="#888888" stroke-opacity="0.533333" stroke-width="0.6"/>
</svg>
