<svg xmlns="http://www.w3.org/2000/svg" xmlns:xlink="http://www.w3.org/1999/xlink" width="500" zoomAndPan="magnify" viewBox="0 0 375 374.999991" height="500" preserveAspectRatio="xMidYMid meet" version="1.0"><defs><clipPath id="112b35da1b"><path d="M 38 85.285156 L 337.5 85.285156 L 337.5 343 L 38 343 Z M 38 85.285156 " clip-rule="nonzero"/></clipPath><clipPath id="d0db749029"><path d="M 160 14.371094 L 215 14.371094 L 215 66 L 160 66 Z M 160 14.371094 " clip-rule="nonzero"/></clipPath><clipPath id="ed3fe6aec8"><path d="M 221 36 L 262.5 36 L 262.5 77.371094 L 221 77.371094 Z M 221 36 " clip-rule="nonzero"/></clipPath><clipPath id="9b8fdb3505"><path d="M 112.5 36 L 154 36 L 154 77.371094 L 112.5 77.371094 Z M 112.5 36 " clip-rule="nonzero"/></clipPath></defs><rect x="-37.5" width="450" fill="#ffffff" y="-37.499999" height="449.999989" fill-opacity="1"/><rect x="-37.5" width="450" fill="#ffffff" y="-37.499999" height="449.999989" fill-opacity="1"/><path fill="#f4f6f1" d="M 44.507812 222.972656 C 44.367188 220.3125 44.785156 217.648438 45.628906 214.847656 C 46.609375 211.484375 47.027344 208.121094 47.027344 204.617188 C 46.746094 198.171875 47.308594 191.867188 48.289062 185.5625 C 48.988281 180.375 50.953125 175.753906 54.734375 172.25 C 58.9375 168.1875 62.300781 163.84375 65.242188 158.9375 C 70.007812 151.230469 76.3125 145.484375 85.140625 142.542969 C 89.066406 141.28125 91.867188 138.902344 93.410156 135.257812 C 95.789062 129.230469 100.835938 127.128906 106.71875 126.007812 C 108.542969 125.730469 110.503906 125.730469 112.324219 126.007812 C 116.25 126.710938 119.609375 125.589844 123.113281 124.328125 C 125.214844 123.628906 126.757812 122.367188 127.175781 119.5625 C 127.457031 117.042969 128.296875 114.378906 129.558594 111.996094 C 131.523438 108.214844 134.605469 106.113281 138.808594 105.269531 C 142.871094 104.429688 146.933594 104.429688 150.859375 105.550781 C 156.464844 107.09375 161.226562 105.972656 165.429688 101.628906 C 172.15625 94.902344 180.84375 92.519531 189.953125 91.820312 C 193.59375 91.539062 197.097656 92.238281 200.320312 93.921875 C 207.46875 98.125 215.035156 98.546875 222.878906 96.582031 C 225.261719 96.023438 228.066406 95.742188 230.445312 95.601562 C 235.210938 95.324219 239.554688 96.722656 243.339844 99.527344 C 250.34375 104.429688 256.089844 110.316406 259.59375 118.164062 C 261.132812 121.664062 263.515625 123.488281 267.300781 124.1875 C 272.765625 125.167969 277.808594 127.550781 282.992188 129.792969 C 283.554688 130.074219 284.113281 130.351562 284.535156 130.773438 C 291.121094 135.675781 296.445312 141.703125 300.507812 148.988281 C 301.488281 150.671875 301.910156 152.632812 301.910156 154.59375 C 301.910156 159.359375 302.890625 160.898438 307.515625 162.441406 C 311.015625 163.703125 314.378906 164.964844 317.460938 167.34375 C 325.730469 173.511719 329.234375 181.777344 327.410156 191.867188 C 326.570312 196.351562 326.570312 200.132812 328.8125 204.335938 C 331.054688 208.539062 332.175781 213.164062 332.457031 217.789062 C 332.734375 222.972656 330.632812 227.175781 326.570312 230.257812 C 324.1875 232.082031 321.386719 233.621094 318.722656 235.023438 C 317.042969 235.863281 315.082031 236.707031 313.820312 238.386719 C 311.578125 241.328125 308.496094 242.871094 304.992188 243.570312 C 299.808594 244.691406 296.863281 247.632812 295.324219 252.679688 C 294.203125 256.882812 291.539062 260.105469 288.039062 262.628906 C 283.695312 265.570312 282.011719 269.492188 282.152344 274.679688 C 282.292969 276.78125 282.152344 279.160156 282.011719 281.265625 C 281.589844 286.730469 279.628906 291.632812 275.425781 295.277344 C 273.324219 297.238281 270.941406 299.199219 268.699219 301.019531 C 266.179688 302.984375 264.214844 305.644531 263.375 308.726562 C 262.675781 312.230469 260.714844 314.753906 257.910156 316.855469 C 248.941406 324 239.273438 328.0625 227.644531 326.804688 C 222.039062 326.242188 216.574219 326.804688 211.109375 327.644531 C 208.167969 328.0625 205.226562 328.484375 202.28125 328.625 C 198.640625 328.765625 195.558594 329.605469 192.472656 331.566406 C 188.972656 333.667969 185.1875 335.070312 181.125 335.910156 C 176.21875 337.03125 171.457031 336.890625 167.113281 334.648438 C 161.367188 331.566406 155.34375 330.585938 148.898438 330.867188 C 145.113281 331.007812 141.328125 331.289062 137.40625 330.585938 C 133.902344 330.027344 131.101562 328.484375 129.140625 325.542969 C 127.316406 323.019531 125.355469 320.359375 123.675781 317.695312 C 121.011719 313.492188 117.371094 310.550781 112.746094 308.585938 C 105.878906 305.925781 100.273438 301.441406 95.230469 295.976562 C 91.027344 291.492188 88.785156 286.449219 89.066406 280.28125 C 89.066406 278.179688 88.785156 276.078125 88.644531 273.976562 C 88.222656 268.09375 84.859375 264.449219 79.675781 262.347656 C 75.332031 260.527344 70.707031 259.683594 66.085938 259.125 C 59.5 258.425781 54.734375 255.203125 51.511719 249.457031 C 50.25 247.355469 49.550781 244.972656 49.691406 242.449219 C 49.832031 240.207031 49.410156 237.964844 48.289062 236.144531 C 45.207031 232.082031 44.507812 227.738281 44.507812 222.972656 Z M 44.507812 222.972656 " fill-opacity="1" fill-rule="nonzero"/><g clip-path="url(#112b35da1b)"><path fill="#030505" d="M 333.15625 201.675781 C 332.175781 199.152344 331.613281 197.050781 332.316406 194.386719 C 332.875 191.867188 333.4375 189.34375 333.15625 186.820312 C 332.175781 175.890625 327.550781 167.066406 318.304688 160.898438 C 315.78125 159.078125 312.980469 157.535156 310.035156 156.554688 C 308.636719 155.996094 307.933594 155.292969 307.792969 153.753906 C 307.652344 150.671875 306.394531 148.007812 304.851562 145.347656 C 300.507812 137.78125 294.761719 131.332031 287.757812 126.007812 C 286.496094 125.027344 285.09375 124.328125 283.691406 123.628906 C 278.648438 121.386719 273.746094 119.285156 268.421875 118.023438 C 266.738281 117.601562 265.898438 116.902344 265.058594 115.359375 C 260.855469 106.8125 254.40625 100.085938 246.421875 94.761719 C 240.957031 91.117188 234.929688 89.296875 228.34375 89.859375 C 224.84375 90.136719 221.199219 90.558594 217.695312 91.257812 C 213.070312 92.238281 208.867188 91.539062 204.804688 89.296875 C 201.441406 87.335938 197.800781 86.074219 193.875 85.933594 C 181.125 85.515625 169.632812 88.738281 160.105469 97.566406 C 158.144531 99.246094 156.324219 100.085938 153.660156 99.246094 C 149.738281 98.125 145.535156 97.984375 141.46875 98.40625 C 132.082031 99.246094 125.496094 103.871094 122.132812 112.835938 C 121.574219 114.378906 120.871094 115.921875 120.59375 117.601562 C 120.171875 119.003906 119.609375 119.5625 118.070312 119.285156 C 114.988281 118.863281 111.765625 118.722656 108.683594 119.003906 C 99.574219 119.84375 92.148438 123.347656 88.082031 132.035156 C 87.242188 134.136719 85.84375 135.257812 83.738281 135.957031 C 74.070312 139.320312 66.785156 145.625 61.460938 154.035156 C 58.378906 158.796875 55.015625 163.28125 50.953125 167.34375 C 46.75 171.546875 44.226562 176.734375 43.105469 182.476562 C 42.265625 186.820312 41.84375 191.164062 41.5625 195.648438 C 41.285156 202.375 41.421875 209.242188 39.601562 215.96875 C 37.5 223.675781 38.761719 231.242188 42.402344 238.386719 C 43.105469 239.648438 43.386719 240.769531 43.386719 242.171875 C 43.246094 245.953125 44.367188 249.316406 46.1875 252.539062 C 50.671875 260.386719 57.257812 265.289062 66.503906 266.410156 C 70.289062 266.832031 74.070312 267.53125 77.714844 268.792969 C 80.097656 269.773438 81.5 271.316406 81.359375 273.976562 C 81.359375 276.078125 81.777344 278.039062 81.777344 280.144531 C 81.777344 287.847656 85 294.15625 90.046875 299.621094 C 95.648438 305.785156 102.097656 310.6875 109.800781 313.910156 C 113.027344 315.3125 115.40625 317.414062 117.371094 320.359375 C 119.332031 323.441406 121.292969 326.382812 123.675781 329.183594 C 126.757812 332.828125 130.539062 335.070312 135.164062 336.050781 C 139.089844 336.890625 142.871094 336.75 147.496094 336.75 C 152.960938 335.769531 158.84375 337.171875 164.589844 340.253906 C 168.652344 342.355469 173.277344 343.058594 177.902344 342.496094 C 184.347656 341.65625 190.371094 339.835938 195.976562 336.613281 C 197.097656 335.910156 198.5 335.070312 199.902344 335.070312 C 205.085938 334.789062 210.410156 333.949219 215.59375 333.25 C 220.5 332.546875 225.261719 333.25 230.027344 333.25 C 243.339844 333.390625 254.128906 327.925781 263.65625 319.097656 C 265.617188 317.273438 267.578125 315.171875 268.140625 312.652344 C 269.121094 308.167969 271.78125 305.222656 275.425781 302.84375 C 276.40625 302.140625 277.246094 301.300781 278.089844 300.460938 C 283.132812 295.976562 286.214844 290.371094 287.476562 283.785156 C 288.035156 280.5625 287.898438 277.339844 287.898438 274.117188 C 287.898438 271.457031 288.597656 269.492188 290.839844 267.953125 C 295.324219 264.871094 298.40625 260.527344 300.085938 255.339844 C 300.789062 253.238281 301.910156 251.976562 304.152344 251.417969 C 308.636719 250.296875 312.699219 248.335938 315.78125 244.691406 C 316.761719 243.570312 318.164062 243.011719 319.425781 242.308594 C 322.507812 240.769531 325.449219 239.226562 328.113281 237.125 C 333.4375 232.921875 336.660156 227.738281 337.078125 220.871094 C 337.5 214.144531 335.820312 207.699219 333.15625 201.675781 Z M 323.207031 230.121094 C 320.824219 231.941406 318.164062 233.34375 315.5 234.742188 C 313.820312 235.585938 311.996094 236.425781 310.738281 237.964844 C 308.496094 240.769531 305.550781 242.308594 302.1875 243.011719 C 297.144531 244.132812 294.203125 246.933594 292.800781 251.839844 C 291.679688 255.902344 289.15625 259.125 285.65625 261.507812 C 281.453125 264.308594 279.769531 268.234375 279.910156 273.277344 C 280.050781 275.378906 279.910156 277.621094 279.769531 279.722656 C 279.347656 285.046875 277.386719 289.8125 273.324219 293.453125 C 271.222656 295.417969 268.980469 297.238281 266.738281 299.058594 C 264.214844 301.019531 262.394531 303.542969 261.554688 306.625 C 260.855469 309.988281 258.890625 312.511719 256.230469 314.613281 C 247.542969 321.617188 238.015625 325.542969 226.664062 324.28125 C 221.199219 323.71875 215.875 324.28125 210.550781 325.121094 C 207.746094 325.542969 204.804688 325.960938 202.003906 326.101562 C 198.5 326.242188 195.417969 327.082031 192.472656 328.90625 C 189.113281 331.007812 185.328125 332.269531 181.40625 333.109375 C 176.640625 334.230469 172.015625 334.089844 167.671875 331.847656 C 162.066406 328.90625 156.183594 327.925781 149.878906 328.203125 C 146.234375 328.34375 142.449219 328.625 138.667969 327.925781 C 135.304688 327.363281 132.503906 325.824219 130.539062 323.019531 C 128.71875 320.496094 126.898438 317.976562 125.214844 315.3125 C 122.554688 311.25 119.050781 308.308594 114.566406 306.484375 C 107.839844 303.824219 102.375 299.480469 97.472656 294.15625 C 93.410156 289.8125 91.167969 284.90625 91.445312 278.882812 C 91.445312 276.78125 91.167969 274.816406 91.027344 272.714844 C 90.605469 266.972656 87.382812 263.46875 82.339844 261.367188 C 78.136719 259.546875 73.652344 258.703125 69.027344 258.285156 C 62.582031 257.582031 57.957031 254.5 54.875 248.894531 C 53.613281 246.792969 52.914062 244.550781 53.054688 242.03125 C 53.195312 239.789062 52.773438 237.6875 51.652344 235.863281 C 48.710938 231.660156 48.007812 227.457031 48.007812 222.691406 C 47.867188 220.171875 48.289062 217.507812 49.128906 214.847656 C 50.109375 211.625 50.53125 208.261719 50.53125 204.898438 C 50.25 198.59375 50.8125 192.425781 51.792969 186.261719 C 52.492188 181.21875 54.453125 176.734375 58.097656 173.230469 C 62.160156 169.308594 65.523438 164.964844 68.328125 160.199219 C 72.949219 152.632812 79.117188 147.027344 87.664062 144.226562 C 91.445312 142.964844 94.25 140.722656 95.789062 137.078125 C 98.171875 131.195312 103.078125 129.09375 108.820312 128.109375 C 110.644531 127.832031 112.464844 127.832031 114.285156 128.109375 C 118.070312 128.8125 121.433594 127.691406 124.796875 126.429688 C 126.898438 125.730469 128.296875 124.46875 128.71875 121.804688 C 129 119.285156 129.839844 116.761719 131.101562 114.378906 C 133.0625 110.734375 136.003906 108.632812 140.070312 107.792969 C 143.992188 106.953125 148.054688 106.953125 151.839844 108.074219 C 157.304688 109.613281 161.929688 108.492188 165.992188 104.289062 C 172.578125 97.703125 180.984375 95.460938 189.953125 94.761719 C 193.457031 94.480469 196.957031 95.183594 200.039062 96.863281 C 207.046875 100.925781 214.332031 101.347656 222.039062 99.527344 C 224.421875 98.964844 227.085938 98.6875 229.464844 98.546875 C 234.089844 98.265625 238.292969 99.667969 242.078125 102.328125 C 248.941406 107.09375 254.546875 112.835938 257.910156 120.542969 C 259.453125 123.90625 261.695312 125.730469 265.476562 126.429688 C 270.800781 127.410156 275.707031 129.652344 280.75 131.894531 C 281.3125 132.175781 281.871094 132.453125 282.292969 132.875 C 288.738281 137.640625 293.921875 143.523438 297.84375 150.671875 C 298.828125 152.351562 299.246094 154.171875 299.246094 156.136719 C 299.246094 160.757812 300.226562 162.300781 304.710938 163.84375 C 308.074219 165.101562 311.4375 166.363281 314.378906 168.605469 C 322.507812 174.632812 325.871094 182.617188 324.046875 192.566406 C 323.207031 196.910156 323.207031 200.695312 325.449219 204.757812 C 327.691406 208.820312 328.671875 213.304688 328.953125 217.929688 C 329.234375 222.972656 327.132812 227.035156 323.207031 230.121094 Z M 200.460938 257.304688 C 200.601562 261.785156 198.078125 264.589844 194.015625 266.691406 C 189.113281 269.214844 184.347656 269.214844 179.582031 266.550781 C 179.441406 266.550781 179.304688 266.410156 179.304688 266.410156 C 175.519531 264.167969 174.398438 260.105469 173.976562 256.320312 C 173.558594 252.960938 176.359375 250.71875 179.441406 249.457031 C 183.226562 247.773438 187.007812 246.234375 191.214844 247.074219 C 192.894531 247.355469 194.4375 247.914062 195.835938 248.894531 C 199.058594 250.71875 200.882812 253.378906 200.460938 257.304688 Z M 149.316406 241.46875 C 154.921875 240.769531 158.003906 235.863281 156.601562 230.398438 C 155.203125 225.777344 152.257812 222.832031 147.496094 221.570312 C 142.589844 220.3125 137.265625 223.394531 135.867188 228.296875 C 134.042969 234.601562 136.566406 239.648438 142.171875 241.1875 C 143.570312 241.609375 144.972656 241.46875 145.8125 241.609375 C 147.496094 241.46875 148.335938 241.46875 149.316406 241.46875 Z M 220.359375 228.296875 C 217.414062 231.800781 217.835938 236.285156 221.339844 239.085938 C 223.722656 241.050781 226.523438 242.167969 229.605469 242.308594 C 234.089844 242.589844 238.433594 239.085938 239.554688 234.464844 C 240.394531 230.820312 238.015625 227.035156 234.230469 225.214844 C 232.6875 224.515625 231.007812 224.515625 228.484375 224.375 C 225.542969 224.09375 222.601562 225.636719 220.359375 228.296875 Z M 220.359375 228.296875 " fill-opacity="1" fill-rule="nonzero"/></g><g clip-path="url(#d0db749029)"><path fill="#ffde17" d="M 187.5 14.371094 L 195.757812 31.101562 L 214.21875 33.785156 L 200.863281 46.808594 L 204.011719 65.195312 L 187.5 56.515625 L 170.984375 65.195312 L 174.136719 46.808594 L 160.777344 33.785156 L 179.242188 31.101562 Z M 187.5 14.371094 " fill-opacity="1" fill-rule="nonzero"/></g><g clip-path="url(#ed3fe6aec8)"><path fill="#ffde17" d="M 243.972656 36.585938 L 248.417969 50.328125 L 262.261719 54.457031 L 250.566406 62.933594 L 250.917969 77.375 L 239.238281 68.867188 L 225.613281 73.664062 L 230.09375 59.933594 L 221.324219 48.457031 L 235.769531 48.472656 Z M 243.972656 36.585938 " fill-opacity="1" fill-rule="nonzero"/></g><g clip-path="url(#9b8fdb3505)"><path fill="#ffde17" d="M 131.027344 36.585938 L 126.582031 50.328125 L 112.738281 54.457031 L 124.433594 62.933594 L 124.082031 77.375 L 135.761719 68.867188 L 149.386719 73.664062 L 144.90625 59.933594 L 153.675781 48.457031 L 139.230469 48.472656 Z M 131.027344 36.585938 " fill-opacity="1" fill-rule="nonzero"/></g></svg>