<svg xmlns="http://www.w3.org/2000/svg" xmlns:xlink="http://www.w3.org/1999/xlink" width="500" zoomAndPan="magnify" viewBox="0 0 375 374.999991" height="500" preserveAspectRatio="xMidYMid meet" version="1.0"><defs><clipPath id="aab9b72c98"><path d="M 90.492188 44 L 284.742188 44 L 284.742188 331.210938 L 90.492188 331.210938 Z M 90.492188 44 " clip-rule="nonzero"/></clipPath></defs><rect x="-37.5" width="450" fill="#ffffff" y="-37.499999" height="449.999989" fill-opacity="1"/><rect x="-37.5" width="450" fill="#ffffff" y="-37.499999" height="449.999989" fill-opacity="1"/><g clip-path="url(#aab9b72c98)"><path fill="#f4f6f1" d="M 145.925781 331.074219 C 142.929688 331.074219 139.003906 330.875 134.945312 329.210938 C 130.6875 327.484375 127.890625 324.425781 126.625 320.234375 C 126.292969 319.039062 126.027344 317.90625 125.894531 316.777344 C 125.761719 315.910156 125.5625 315.113281 125.363281 314.648438 C 125.363281 314.582031 125.296875 314.515625 125.296875 314.515625 C 123.898438 315.578125 122.101562 316.308594 120.171875 316.445312 L 119.839844 316.511719 L 117.175781 316.511719 L 116.84375 316.308594 C 116.046875 316.242188 115.3125 316.042969 114.648438 315.710938 C 111.71875 314.582031 109.324219 313.25 107.0625 311.523438 C 104.398438 309.59375 103.136719 305.933594 104 302.675781 C 104.066406 302.277344 104.199219 301.945312 104.265625 301.746094 L 104.265625 301.613281 C 104.332031 301.347656 104.398438 301.082031 104.464844 300.878906 C 104.464844 300.8125 104.53125 300.746094 104.53125 300.679688 L 104.597656 300.414062 C 105.332031 297.421875 107.195312 295.027344 109.988281 293.765625 C 110.054688 293.699219 110.121094 293.699219 110.253906 293.632812 C 111.253906 293.03125 112.320312 292.632812 113.382812 292.433594 C 114.117188 292.300781 114.980469 291.96875 115.914062 291.636719 L 116.046875 291.570312 C 113.78125 291.039062 111.71875 289.441406 110.65625 287.378906 C 110.589844 287.246094 110.523438 287.046875 110.390625 286.847656 C 110.324219 286.714844 110.253906 286.582031 110.1875 286.449219 L 110.121094 286.316406 C 109.988281 286.050781 109.789062 285.652344 109.523438 285.117188 L 109.390625 284.71875 C 108.527344 282.058594 107.460938 279.332031 106.527344 277.003906 C 105.863281 275.476562 105.199219 273.679688 104.53125 271.816406 L 104.132812 270.820312 L 104 270.421875 C 103.335938 268.558594 102.601562 266.628906 101.738281 265.101562 C 100.605469 262.972656 99.941406 260.976562 99.410156 259.113281 L 99.210938 258.449219 C 98.476562 256.054688 98.144531 253.992188 98.144531 251.929688 C 98.078125 247.210938 97.144531 242.488281 96.878906 237.765625 C 96.746094 235.304688 99.675781 226.328125 101.273438 224.597656 C 102.601562 223.132812 107.460938 224.796875 108.125 223 C 109.988281 218.144531 108.527344 216.683594 108.726562 212.09375 C 108.792969 210.097656 109.191406 208.238281 109.921875 206.375 C 110.921875 203.714844 111.320312 201.386719 111.121094 199.191406 C 111.054688 198.460938 111.054688 197.792969 111.121094 197.328125 C 111.121094 197.195312 111.121094 197.128906 111.121094 196.996094 L 111.121094 196.398438 C 111.1875 193.738281 111.917969 191.34375 112.386719 189.746094 L 113.117188 187.621094 C 113.582031 186.355469 113.984375 185.226562 114.050781 184.292969 C 114.25 181.433594 115.445312 178.574219 117.441406 176.179688 C 118.441406 174.984375 119.839844 174.050781 121.371094 173.652344 C 120.769531 172.921875 120.171875 172.257812 119.4375 171.523438 C 117.640625 169.730469 116.246094 167.800781 115.113281 166.136719 C 113.183594 163.410156 111.652344 160.417969 110.589844 156.960938 C 109.988281 154.898438 109.191406 152.503906 108.125 150.707031 C 106.261719 147.515625 105.332031 143.925781 105.464844 139.933594 C 105.464844 139.933594 105.464844 138.667969 105.398438 137.472656 L 105.398438 136.941406 C 105.597656 135.144531 104.664062 132.882812 102.535156 130.023438 C 97.414062 126.566406 91.890625 115.59375 92.886719 108.808594 C 92.554688 108.410156 92.089844 107.945312 91.824219 107.210938 C 90.492188 103.953125 90.558594 99.960938 90.558594 96.4375 C 90.558594 95.90625 90.558594 95.441406 90.558594 94.90625 L 90.558594 93.777344 L 91.355469 92.980469 C 91.421875 92.914062 91.621094 92.714844 91.753906 92.515625 C 91.957031 92.246094 92.222656 91.914062 92.488281 91.582031 C 92.488281 91.449219 92.421875 91.382812 92.421875 91.25 L 92.222656 90.851562 C 91.957031 90.1875 91.621094 89.320312 91.421875 88.191406 C 90.890625 85.332031 91.355469 82.671875 92.820312 80.476562 L 93.351562 79.679688 C 94.152344 78.414062 95.015625 77.152344 96.015625 75.886719 L 96.214844 75.621094 L 96.28125 75.488281 C 97.078125 74.492188 97.746094 73.691406 98.144531 72.828125 C 99.609375 69.703125 102.070312 67.308594 105.398438 65.84375 C 106.460938 65.3125 107.527344 64.847656 108.792969 64.25 C 109.324219 63.980469 109.523438 63.847656 109.65625 63.78125 C 111.121094 60.921875 113.316406 59.328125 115.046875 58.261719 C 116.976562 57 119.105469 56.332031 121.4375 56.265625 L 121.636719 56.265625 C 122.964844 56.265625 124.164062 56.535156 124.960938 56.734375 L 125.097656 56.800781 L 125.828125 57 C 126.625 57.265625 127.425781 57.464844 128.222656 57.796875 L 128.355469 57.796875 L 128.554688 57.863281 C 129.15625 58.0625 129.886719 58.328125 130.6875 58.792969 C 131.882812 58.195312 132.949219 58.0625 133.746094 58.0625 L 133.878906 58.0625 C 134.078125 58.0625 134.277344 58.0625 134.414062 58.0625 C 134.414062 57.996094 134.414062 57.996094 134.480469 57.929688 C 135.34375 54.9375 135.875 53.140625 138.074219 53.140625 C 138.207031 53.140625 138.339844 53.074219 138.539062 52.941406 L 138.605469 52.875 C 138.9375 52.742188 139.269531 52.542969 139.601562 52.410156 L 139.667969 52.34375 C 139.871094 52.210938 140.136719 52.144531 140.335938 52.011719 L 140.46875 51.945312 C 141.867188 51.28125 142.929688 50.8125 143.664062 50.214844 C 145.59375 48.617188 147.855469 47.753906 150.316406 47.621094 C 152.578125 47.554688 154.308594 46.957031 155.839844 45.890625 C 157.769531 44.761719 160.03125 44.097656 162.628906 44.097656 C 167.621094 44.097656 172.675781 44.164062 177.933594 44.230469 C 177.933594 44.230469 178.199219 44.230469 178.199219 44.230469 C 179.398438 44.230469 181.261719 44.296875 183.125 45.09375 L 183.257812 45.160156 C 184.054688 45.558594 185.253906 45.625 186.851562 45.625 L 187.648438 45.625 C 191.242188 45.625 194.4375 47.023438 196.832031 49.683594 C 198.03125 50.945312 199.296875 51.8125 201.027344 52.34375 C 204.484375 53.539062 207.546875 55.070312 210.140625 56.933594 C 212.074219 58.261719 214.070312 59.261719 216.398438 60.058594 C 219.058594 60.855469 221.65625 62.253906 224.449219 64.316406 C 225.980469 65.511719 227.578125 66.777344 228.976562 68.703125 C 231.171875 71.5625 233.367188 74.757812 235.429688 77.816406 C 235.828125 78.414062 236.5625 79.277344 237.292969 80.078125 C 237.558594 80.34375 237.625 80.410156 237.625 80.410156 C 238.824219 80.476562 239.753906 80.808594 240.488281 81.007812 L 240.820312 81.140625 C 240.820312 81.140625 241.152344 81.273438 241.21875 81.273438 C 245.945312 81.539062 249.9375 84.066406 252.800781 88.589844 C 253.996094 90.453125 255.0625 91.78125 256.257812 92.914062 C 258.722656 95.375 260.453125 98.433594 261.648438 102.289062 C 262.449219 104.949219 263.710938 107.410156 265.042969 110.070312 C 265.976562 111.933594 266.839844 113.996094 267.640625 115.992188 C 268.371094 117.984375 268.769531 119.714844 268.902344 121.445312 C 269.035156 123.039062 268.835938 124.4375 268.636719 125.5 C 268.4375 126.632812 268.304688 127.496094 268.570312 128.496094 C 269.570312 132.417969 268.371094 135.410156 267.371094 137.273438 C 267.304688 137.40625 267.171875 137.804688 267.105469 138.070312 C 266.773438 139.070312 266.375 140.398438 265.308594 141.398438 C 263.980469 142.660156 262.980469 144.390625 261.914062 146.316406 C 261.25 147.449219 260.652344 148.578125 259.851562 149.777344 C 257.324219 153.5 253.265625 155.695312 248.671875 155.828125 C 247.742188 155.828125 246.941406 156.027344 245.613281 156.960938 L 245.480469 157.09375 L 245.347656 157.160156 C 245.210938 157.226562 245.078125 157.359375 244.945312 157.492188 L 244.8125 157.558594 C 243.28125 158.6875 241.6875 159.21875 239.890625 159.21875 C 239.621094 159.21875 239.421875 159.21875 239.222656 159.21875 C 239.023438 159.753906 238.890625 160.351562 238.691406 160.949219 L 238.625 161.148438 C 238.425781 161.746094 238.292969 162.347656 238.09375 162.878906 C 237.160156 165.871094 235.960938 169.527344 235.296875 172.988281 C 234.5 177.042969 232.636719 180.835938 229.773438 183.894531 C 229.308594 184.425781 228.84375 184.890625 228.574219 185.226562 C 227.113281 186.820312 226.710938 186.6875 225.714844 188.285156 C 224.582031 190.144531 222.121094 191.609375 220.722656 192.472656 L 220.589844 192.539062 C 220.457031 192.605469 220.324219 192.671875 220.191406 192.808594 C 220.457031 193.605469 220.523438 195.601562 220.523438 196.464844 L 220.523438 197.460938 C 220.523438 197.660156 220.523438 197.792969 220.523438 197.925781 C 220.589844 198.128906 220.65625 198.394531 220.722656 198.660156 L 220.855469 199.058594 C 221.121094 199.921875 221.457031 200.921875 221.65625 202.183594 C 221.855469 203.25 221.855469 204.113281 221.855469 204.777344 L 221.855469 204.976562 C 221.855469 205.109375 221.855469 205.308594 221.855469 205.375 C 222.851562 207.703125 222.984375 209.964844 222.984375 212.09375 L 222.785156 222.601562 C 222.785156 222.734375 222.851562 222.933594 223.050781 223.332031 C 223.785156 222.867188 224.78125 222.335938 225.914062 222.335938 C 226.445312 222.335938 226.980469 222.46875 227.511719 222.667969 C 229.042969 223.398438 233.035156 224.332031 233.035156 226.394531 C 239.289062 230.050781 238.359375 242.289062 238.625 243.417969 C 238.625 243.550781 238.691406 243.617188 238.691406 243.75 C 238.757812 244.015625 238.824219 244.285156 238.824219 244.550781 C 238.824219 244.550781 238.824219 244.617188 238.824219 244.617188 C 241.019531 251 236.230469 263.039062 233.898438 267.496094 C 233.765625 268.691406 233.566406 269.820312 233.300781 270.886719 C 235.363281 269.554688 237.558594 268.890625 239.957031 268.890625 C 240.886719 268.890625 241.820312 268.957031 242.816406 269.15625 C 243.550781 269.289062 244.214844 269.554688 244.613281 269.6875 C 246.609375 268.957031 251.070312 266.695312 253.332031 266.695312 C 255.859375 266.695312 257.722656 264.566406 260.1875 264.167969 C 264.578125 263.371094 270.699219 265.300781 274.09375 268.226562 C 274.09375 268.226562 274.226562 268.359375 274.226562 268.359375 L 274.691406 268.824219 C 275.359375 269.421875 275.957031 269.886719 276.421875 270.15625 C 278.953125 271.550781 282.144531 274.410156 282.945312 280.128906 L 283.144531 281.859375 L 283.210938 282.390625 C 283.277344 282.789062 283.277344 283.390625 283.34375 283.589844 L 283.410156 283.722656 C 284.742188 286.382812 284.140625 289.308594 283.144531 291.238281 C 282.414062 292.765625 281.613281 294.097656 280.683594 295.160156 C 279.683594 296.292969 278.886719 297.222656 278.019531 298.019531 C 277.820312 298.21875 277.6875 298.355469 277.621094 298.421875 L 277.355469 298.820312 C 275.027344 301.28125 272.03125 302.476562 268.171875 302.476562 L 267.371094 302.476562 L 266.972656 302.410156 C 265.777344 302.34375 264.644531 302.078125 263.644531 301.679688 C 262.914062 301.347656 261.847656 301.214844 260.71875 301.082031 L 260.386719 301.082031 C 260.117188 301.082031 259.851562 301.015625 259.652344 301.015625 C 254.796875 300.414062 249.738281 299.484375 245.210938 296.027344 C 240.953125 293.765625 236.496094 290.839844 231.304688 286.980469 C 231.238281 286.980469 231.105469 286.914062 231.039062 286.914062 C 230.238281 286.714844 229.441406 286.449219 228.710938 286.050781 C 227.511719 289.375 225.980469 292.300781 224.050781 294.894531 C 223.785156 295.226562 223.519531 295.625 223.320312 296.027344 C 226.578125 299.085938 228.375 302.742188 229.90625 306.269531 C 230.503906 307.597656 230.640625 309.0625 230.304688 310.65625 C 229.972656 312.386719 229.109375 313.78125 227.910156 314.847656 L 227.84375 314.914062 C 224.980469 317.109375 222.1875 318.238281 219.257812 318.238281 C 217.996094 318.238281 216.730469 318.039062 215.464844 317.574219 C 215.132812 317.441406 214.867188 317.375 214.667969 317.308594 L 212.003906 316.710938 C 212.003906 316.710938 211.007812 315.84375 210.941406 315.84375 C 210.410156 318.769531 208.8125 321.363281 206.480469 323.226562 L 205.75 323.757812 C 204.753906 324.558594 203.753906 325.355469 202.6875 326.152344 L 202.621094 326.21875 L 202.355469 326.417969 C 200.492188 327.882812 198.363281 328.613281 196.101562 328.613281 L 195.703125 328.613281 C 194.371094 328.679688 193.171875 328.679688 192.507812 329.011719 C 191.308594 329.613281 189.847656 329.945312 188.25 329.945312 C 187.316406 329.945312 186.453125 329.8125 185.851562 329.746094 L 185.585938 329.679688 C 183.65625 329.414062 181.859375 328.878906 180.261719 328.414062 L 179.796875 328.28125 C 178.066406 327.816406 176.601562 326.753906 175.671875 325.953125 L 175.40625 325.6875 C 175.339844 325.621094 175.273438 325.621094 175.273438 325.554688 L 175.207031 325.488281 C 175.003906 325.289062 174.804688 325.089844 174.605469 324.957031 L 174.273438 324.691406 C 173.210938 323.691406 171.878906 322.429688 170.746094 320.832031 C 169.75 319.503906 166.886719 315.710938 168.21875 310.589844 L 168.152344 310.589844 C 167.417969 310.789062 166.554688 310.988281 165.621094 311.121094 L 165.222656 311.1875 L 164.625 311.1875 C 164.292969 311.1875 163.890625 311.1875 163.558594 311.121094 C 163.558594 311.257812 163.558594 311.390625 163.558594 311.523438 C 163.558594 312.121094 163.625 312.785156 163.625 313.382812 C 163.625 313.984375 163.625 314.515625 163.691406 315.046875 L 163.691406 315.3125 C 163.691406 315.710938 163.691406 316.042969 163.691406 316.308594 C 163.691406 317.109375 163.757812 317.972656 163.691406 318.902344 C 163.425781 323.425781 160.5 326.953125 156.304688 328.015625 C 155.90625 328.148438 155.109375 328.546875 154.375 329.011719 L 153.511719 329.546875 C 152.511719 330.144531 150.980469 330.875 149.117188 331.074219 C 148.1875 331.074219 147.054688 331.074219 145.925781 331.074219 Z M 145.925781 331.074219 " fill-opacity="1" fill-rule="nonzero"/></g><path fill="#e8e8e8" d="M 220.65625 192.40625 C 219.59375 192.605469 215.933594 195.265625 215.066406 195.867188 C 213.734375 196.730469 211.074219 197.527344 209.609375 198.0625 C 208.078125 198.59375 208.210938 198.925781 206.75 199.589844 C 205.21875 200.253906 203.6875 200.988281 201.957031 201.253906 C 199.628906 201.585938 197.5 201.1875 195.101562 200.921875 C 194.039062 200.789062 192.972656 200.921875 191.910156 200.921875 C 190.644531 200.988281 189.378906 201.121094 188.183594 201.652344 C 184.054688 203.316406 180.0625 204.046875 175.671875 203.046875 C 173.140625 202.449219 170.945312 202.515625 168.417969 203.117188 C 161.761719 204.84375 152.445312 199.191406 146.191406 196.996094 C 143.796875 196.132812 141.664062 194.601562 139.800781 192.875 C 138.871094 192.007812 138.003906 191.078125 137.074219 190.144531 C 136.140625 189.214844 135.210938 188.417969 134.011719 187.886719 C 131.21875 186.621094 129.023438 186.023438 126.558594 184.09375 C 125.496094 183.230469 124.828125 180.902344 124.363281 179.570312 C 124.230469 179.105469 123.097656 175.847656 123.164062 175.847656 C 126.09375 177.175781 127.890625 182.964844 131.019531 183.960938 C 134.078125 184.957031 137.339844 185.292969 140.203125 186.753906 C 141.800781 187.550781 144.925781 191.210938 146.523438 192.007812 C 151.78125 194.535156 155.175781 195.601562 160.632812 197.59375 C 161.761719 197.996094 162.828125 198.527344 164.027344 198.726562 C 165.15625 198.925781 166.289062 198.925781 167.417969 198.792969 C 168.550781 198.660156 171.746094 197.996094 172.210938 198.0625 C 172.808594 198.195312 173.410156 198.394531 174.007812 198.59375 C 176.269531 199.125 178.597656 199.191406 180.863281 198.726562 C 183.125 198.261719 186.320312 198.328125 188.582031 197.859375 C 189.777344 197.59375 190.910156 197.527344 192.109375 197.527344 C 196.765625 198.792969 199.828125 197.925781 204.550781 196.929688 C 207.945312 196.199219 209.078125 195.132812 212.671875 194.601562 C 213.402344 194.46875 220.058594 192.472656 220.65625 192.40625 Z M 210.941406 314.582031 C 211.140625 313.851562 211.339844 313.117188 211.605469 312.386719 C 211.671875 312.1875 212.074219 310.988281 212.140625 311.054688 C 212.207031 310.523438 212.207031 309.925781 212.273438 309.394531 C 212.472656 307.929688 212.605469 306.46875 212.871094 305.003906 C 212.871094 304.9375 212.9375 304.804688 212.9375 304.671875 C 212.804688 300.8125 213.269531 297.222656 214.933594 294.429688 C 215.199219 293.566406 215.398438 292.699219 215.53125 291.769531 C 215.53125 291.570312 215.664062 291.371094 215.734375 291.171875 C 216.398438 289.773438 216.332031 288.3125 216.332031 286.78125 L 216.332031 279.066406 C 216.332031 276.339844 216.664062 273.546875 215.734375 270.820312 C 215.53125 270.289062 215.734375 269.554688 215.933594 268.957031 C 216.996094 265.699219 218.261719 262.507812 218.0625 258.980469 C 218.0625 258.582031 218.195312 258.117188 218.328125 257.71875 C 219.058594 254.660156 221.1875 247.078125 218.859375 244.351562 C 215.597656 240.425781 215.066406 247.941406 214.136719 250.601562 C 212.605469 254.992188 212.003906 259.3125 211.140625 263.96875 C 209.742188 266.296875 209.941406 268.890625 209.941406 271.484375 C 209.941406 276.804688 210.007812 282.191406 210.007812 287.511719 C 210.007812 288.378906 209.941406 289.242188 209.675781 290.039062 C 208.480469 293.433594 207.746094 296.890625 207.613281 300.414062 C 208.8125 305.203125 209.542969 309.859375 209.078125 314.582031 C 209.742188 314.582031 210.34375 314.582031 210.941406 314.582031 Z M 154.976562 281.195312 C 154.910156 283.058594 154.777344 284.917969 154.910156 286.78125 C 155.839844 289.242188 156.371094 291.636719 157.039062 294.363281 C 157.171875 294.828125 158.167969 297.820312 157.902344 297.289062 C 158.503906 298.621094 159.101562 299.949219 159.699219 301.347656 C 160.566406 303.472656 161.695312 308.0625 163.226562 309.859375 C 164.226562 311.054688 164.558594 311.390625 166.023438 311.390625 C 166.621094 311.390625 169.683594 309.992188 169.949219 309.328125 C 170.746094 307.066406 172.875 303.941406 174.007812 301.746094 C 174.671875 300.480469 175.273438 299.21875 175.9375 297.953125 C 176.335938 295.828125 176.800781 293.699219 177.335938 291.570312 C 177.867188 289.308594 178 286.914062 178.734375 284.71875 C 179.464844 282.457031 179.464844 280.0625 178.53125 277.804688 C 177.667969 275.742188 177.601562 273.613281 177.667969 271.484375 C 177.734375 269.355469 177.867188 267.226562 177.867188 265.101562 C 177.867188 262.574219 177.667969 259.980469 178.933594 257.585938 C 179.066406 255.722656 178.332031 253.992188 178.265625 252.066406 C 178.199219 249.472656 178 241.421875 176.402344 241.222656 C 176.003906 241.222656 175.539062 241.355469 175.207031 241.554688 C 173.675781 242.488281 174.207031 245.414062 174.207031 247.277344 C 174.207031 249.203125 173.476562 250.867188 173.609375 252.796875 C 173.742188 255.191406 173.074219 256.253906 172.144531 258.515625 C 171.546875 259.914062 171.546875 261.375 171.546875 262.90625 C 171.480469 265.632812 171.414062 268.425781 171.347656 271.21875 C 171.277344 274.011719 171.144531 276.738281 172.34375 279.398438 C 172.941406 280.796875 172.875 282.324219 172.542969 283.789062 C 172.078125 285.652344 171.480469 287.445312 171.277344 289.375 C 171.078125 291.238281 170.679688 293.164062 170.082031 294.960938 C 169.214844 297.621094 168.75 300.347656 168.816406 303.140625 C 168.816406 303.742188 168.285156 304.472656 167.820312 304.605469 C 166.753906 304.871094 165.753906 305.203125 164.691406 305.335938 C 164.359375 305.402344 163.824219 305.070312 163.691406 304.738281 C 163.226562 303.742188 162.695312 302.742188 162.628906 301.746094 C 162.230469 297.753906 162.5625 293.632812 161.230469 289.707031 C 161.164062 286.980469 161.03125 284.1875 161.03125 281.394531 L 161.03125 264.234375 C 160.699219 261.773438 161.03125 259.644531 161.363281 256.253906 C 161.496094 251.996094 161.363281 252.332031 161.296875 248.074219 C 161.296875 246.476562 160.566406 245.148438 159.699219 243.949219 C 159.367188 243.484375 158.636719 243.152344 158.035156 243.085938 C 155.640625 242.6875 156.105469 244.214844 156.105469 246.542969 C 156.105469 250.136719 155.308594 253.859375 154.910156 257.453125 C 154.710938 259.378906 154.777344 261.308594 154.84375 263.238281 C 154.976562 269.222656 155.109375 275.210938 154.976562 281.195312 Z M 125.429688 310.523438 C 125.5625 306.136719 126.757812 301.480469 126.292969 297.023438 C 126.226562 296.160156 126.292969 295.359375 126.425781 294.5625 C 126.425781 293.765625 126.359375 292.964844 126.359375 292.167969 C 125.164062 289.839844 125.496094 287.179688 124.695312 284.71875 C 124.097656 282.789062 124.097656 280.996094 124.695312 279.066406 C 125.230469 277.402344 125.097656 275.675781 124.5625 274.011719 C 123.765625 271.550781 124.03125 268.890625 122.964844 266.496094 C 122.632812 265.765625 122.699219 264.832031 122.699219 263.96875 C 122.699219 259.445312 122.566406 254.992188 122.632812 250.46875 C 122.699219 246.011719 122.898438 241.621094 122.898438 237.167969 C 122.898438 236.367188 122.898438 235.503906 122.832031 234.640625 C 122.832031 233.839844 122.035156 233.175781 121.101562 233.175781 C 117.441406 233.242188 116.246094 249.203125 116.113281 251.53125 C 116.046875 253.460938 116.179688 255.390625 116.179688 257.320312 C 116.246094 259.914062 116.046875 262.507812 116.3125 265.035156 C 116.578125 267.5625 117.574219 269.953125 117.710938 272.546875 C 118.707031 274.742188 118.574219 277.136719 118.507812 279.464844 C 118.441406 282.125 118.375 283.988281 118.972656 286.648438 C 119.371094 288.511719 118.574219 290.503906 119.105469 292.367188 C 119.304688 293.097656 119.972656 293.699219 120.105469 294.496094 C 120.238281 295.292969 119.707031 296.027344 119.640625 296.824219 C 119.304688 299.949219 121.902344 303.273438 122.367188 306.335938 C 122.433594 306.734375 122.433594 307.199219 122.433594 307.597656 C 122.433594 308.0625 122.367188 308.527344 122.234375 308.929688 C 123.234375 310.257812 124.03125 311.722656 124.761719 313.183594 C 124.960938 313.183594 125.164062 313.117188 125.296875 313.117188 C 125.363281 312.320312 125.363281 311.457031 125.429688 310.523438 Z M 125.429688 310.523438 " fill-opacity="1" fill-rule="nonzero"/><path fill="#000000" d="M 152.378906 119.914062 C 154.109375 120.113281 157.171875 123.640625 157.238281 125.300781 C 157.238281 125.433594 157.238281 125.566406 157.238281 125.765625 C 157.503906 131.621094 152.046875 136.007812 146.523438 132.683594 C 139.667969 128.496094 144.527344 118.917969 152.378906 119.914062 Z M 188.382812 143.789062 C 188.78125 145.851562 190.578125 147.847656 192.375 148.910156 C 195.96875 151.039062 202.222656 147.316406 202.757812 143.390625 C 202.824219 142.992188 202.824219 142.660156 202.824219 142.261719 C 203.089844 131.6875 186.585938 134.480469 188.382812 143.789062 Z M 159.5 154.699219 C 159.699219 155.03125 159.898438 155.363281 160.097656 155.628906 C 162.027344 158.488281 165.355469 160.152344 168.75 160.417969 C 174.804688 160.949219 180.796875 155.03125 177.734375 149.113281 C 176.46875 146.652344 174.074219 145.519531 171.613281 144.65625 C 168.152344 143.457031 163.09375 142.195312 159.765625 144.191406 C 156.039062 146.382812 157.636719 151.503906 159.5 154.699219 Z M 159.5 154.699219 " fill-opacity="1" fill-rule="nonzero"/></svg>