<svg xmlns="http://www.w3.org/2000/svg" xmlns:xlink="http://www.w3.org/1999/xlink" width="500" zoomAndPan="magnify" viewBox="0 0 375 374.999991" height="500" preserveAspectRatio="xMidYMid meet" version="1.0"><defs><clipPath id="4ae5be98c8"><path d="M 38 59 L 337.5 59 L 337.5 316 L 38 316 Z M 38 59 " clip-rule="nonzero"/></clipPath></defs><rect x="-37.5" width="450" fill="#ffffff" y="-37.499999" height="449.999989" fill-opacity="1"/><rect x="-37.5" width="450" fill="#ffffff" y="-37.499999" height="449.999989" fill-opacity="1"/><path fill="#f4f6f1" d="M 44.507812 196.1875 C 44.367188 193.523438 44.785156 190.863281 45.628906 188.058594 C 46.609375 184.699219 47.027344 181.335938 47.027344 177.832031 C 46.746094 171.386719 47.308594 165.082031 48.289062 158.773438 C 48.988281 153.589844 50.953125 148.964844 54.734375 145.464844 C 58.9375 141.398438 62.300781 137.054688 65.242188 132.152344 C 70.007812 124.445312 76.3125 118.699219 85.140625 115.757812 C 89.066406 114.496094 91.867188 112.113281 93.410156 108.472656 C 95.789062 102.445312 100.835938 100.34375 106.71875 99.222656 C 108.542969 98.941406 110.503906 98.941406 112.324219 99.222656 C 116.25 99.925781 119.609375 98.804688 123.113281 97.542969 C 125.214844 96.839844 126.757812 95.582031 127.175781 92.777344 C 127.457031 90.253906 128.296875 87.59375 129.558594 85.210938 C 131.523438 81.429688 134.605469 79.328125 138.808594 78.484375 C 142.871094 77.644531 146.933594 77.644531 150.859375 78.765625 C 156.464844 80.308594 161.226562 79.1875 165.429688 74.84375 C 172.15625 68.117188 180.84375 65.734375 189.953125 65.035156 C 193.59375 64.753906 197.097656 65.453125 200.320312 67.136719 C 207.46875 71.339844 215.035156 71.757812 222.878906 69.796875 C 225.261719 69.238281 228.066406 68.957031 230.445312 68.816406 C 235.210938 68.535156 239.554688 69.9375 243.339844 72.742188 C 250.34375 77.644531 256.089844 83.53125 259.59375 91.375 C 261.132812 94.878906 263.515625 96.703125 267.300781 97.402344 C 272.765625 98.382812 277.808594 100.765625 282.992188 103.007812 C 283.554688 103.285156 284.113281 103.566406 284.535156 103.988281 C 291.121094 108.890625 296.445312 114.917969 300.507812 122.203125 C 301.488281 123.886719 301.910156 125.847656 301.910156 127.808594 C 301.910156 132.574219 302.890625 134.113281 307.515625 135.65625 C 311.015625 136.917969 314.378906 138.175781 317.460938 140.558594 C 325.730469 146.726562 329.234375 154.992188 327.410156 165.082031 C 326.570312 169.5625 326.570312 173.347656 328.8125 177.550781 C 331.054688 181.753906 332.175781 186.378906 332.457031 191.003906 C 332.734375 196.1875 330.632812 200.390625 326.570312 203.472656 C 324.1875 205.296875 321.386719 206.835938 318.722656 208.238281 C 317.042969 209.078125 315.082031 209.917969 313.820312 211.601562 C 311.578125 214.542969 308.496094 216.085938 304.992188 216.785156 C 299.808594 217.90625 296.863281 220.847656 295.324219 225.894531 C 294.203125 230.097656 291.539062 233.320312 288.039062 235.84375 C 283.695312 238.785156 282.011719 242.707031 282.152344 247.890625 C 282.292969 249.996094 282.152344 252.375 282.011719 254.476562 C 281.589844 259.941406 279.628906 264.847656 275.425781 268.488281 C 273.324219 270.453125 270.941406 272.414062 268.699219 274.234375 C 266.179688 276.195312 264.214844 278.859375 263.375 281.941406 C 262.675781 285.445312 260.714844 287.96875 257.910156 290.070312 C 248.941406 297.214844 239.273438 301.277344 227.644531 300.015625 C 222.039062 299.457031 216.574219 300.015625 211.109375 300.859375 C 208.167969 301.277344 205.226562 301.699219 202.28125 301.839844 C 198.640625 301.980469 195.558594 302.820312 192.472656 304.78125 C 188.972656 306.882812 185.1875 308.285156 181.125 309.125 C 176.21875 310.246094 171.457031 310.105469 167.113281 307.863281 C 161.367188 304.78125 155.34375 303.800781 148.898438 304.082031 C 145.113281 304.222656 141.328125 304.5 137.40625 303.800781 C 133.902344 303.242188 131.101562 301.699219 129.140625 298.757812 C 127.316406 296.234375 125.355469 293.570312 123.675781 290.910156 C 121.011719 286.707031 117.371094 283.761719 112.746094 281.800781 C 105.878906 279.140625 100.273438 274.65625 95.230469 269.191406 C 91.027344 264.707031 88.785156 259.664062 89.066406 253.496094 C 89.066406 251.394531 88.785156 249.292969 88.644531 247.191406 C 88.222656 241.308594 84.859375 237.664062 79.675781 235.5625 C 75.332031 233.738281 70.707031 232.898438 66.085938 232.339844 C 59.5 231.636719 54.734375 228.414062 51.511719 222.671875 C 50.25 220.570312 49.550781 218.1875 49.691406 215.664062 C 49.832031 213.421875 49.410156 211.179688 48.289062 209.359375 C 45.207031 205.296875 44.507812 200.953125 44.507812 196.1875 Z M 44.507812 196.1875 " fill-opacity="1" fill-rule="nonzero"/><g clip-path="url(#4ae5be98c8)"><path fill="#030505" d="M 333.15625 174.890625 C 332.175781 172.367188 331.613281 170.265625 332.316406 167.601562 C 332.875 165.082031 333.4375 162.558594 333.15625 160.035156 C 332.175781 149.105469 327.550781 140.277344 318.304688 134.113281 C 315.78125 132.292969 312.980469 130.75 310.035156 129.769531 C 308.636719 129.210938 307.933594 128.507812 307.792969 126.96875 C 307.652344 123.886719 306.394531 121.222656 304.851562 118.558594 C 300.507812 110.992188 294.761719 104.546875 287.757812 99.222656 C 286.496094 98.242188 285.09375 97.542969 283.691406 96.839844 C 278.648438 94.597656 273.746094 92.496094 268.421875 91.238281 C 266.738281 90.816406 265.898438 90.117188 265.058594 88.574219 C 260.855469 80.027344 254.40625 73.300781 246.421875 67.976562 C 240.957031 64.332031 234.929688 62.511719 228.34375 63.070312 C 224.84375 63.351562 221.199219 63.773438 217.695312 64.472656 C 213.070312 65.453125 208.867188 64.753906 204.804688 62.511719 C 201.441406 60.550781 197.800781 59.289062 193.875 59.148438 C 181.125 58.726562 169.632812 61.953125 160.105469 70.777344 C 158.144531 72.460938 156.324219 73.300781 153.660156 72.460938 C 149.738281 71.339844 145.535156 71.199219 141.46875 71.621094 C 132.082031 72.460938 125.496094 77.085938 122.132812 86.050781 C 121.574219 87.59375 120.871094 89.132812 120.59375 90.816406 C 120.171875 92.21875 119.609375 92.777344 118.070312 92.496094 C 114.988281 92.078125 111.765625 91.9375 108.683594 92.21875 C 99.574219 93.058594 92.148438 96.5625 88.082031 105.25 C 87.242188 107.351562 85.84375 108.472656 83.738281 109.171875 C 74.070312 112.535156 66.785156 118.839844 61.460938 127.246094 C 58.378906 132.011719 55.015625 136.496094 50.953125 140.558594 C 46.75 144.761719 44.226562 149.949219 43.105469 155.691406 C 42.265625 160.035156 41.84375 164.378906 41.5625 168.863281 C 41.285156 175.589844 41.421875 182.457031 39.601562 189.179688 C 37.5 196.886719 38.761719 204.453125 42.402344 211.601562 C 43.105469 212.863281 43.386719 213.984375 43.386719 215.382812 C 43.246094 219.167969 44.367188 222.53125 46.1875 225.753906 C 50.671875 233.601562 57.257812 238.503906 66.503906 239.625 C 70.289062 240.046875 74.070312 240.746094 77.714844 242.007812 C 80.097656 242.988281 81.5 244.53125 81.359375 247.191406 C 81.359375 249.292969 81.777344 251.253906 81.777344 253.355469 C 81.777344 261.0625 85 267.371094 90.046875 272.832031 C 95.648438 279 102.097656 283.902344 109.800781 287.125 C 113.027344 288.527344 115.40625 290.628906 117.371094 293.570312 C 119.332031 296.65625 121.292969 299.597656 123.675781 302.398438 C 126.757812 306.042969 130.539062 308.285156 135.164062 309.265625 C 139.089844 310.105469 142.871094 309.964844 147.496094 309.964844 C 152.960938 308.984375 158.84375 310.386719 164.589844 313.46875 C 168.652344 315.570312 173.277344 316.273438 177.902344 315.710938 C 184.347656 314.871094 190.371094 313.046875 195.976562 309.824219 C 197.097656 309.125 198.5 308.285156 199.902344 308.285156 C 205.085938 308.003906 210.410156 307.164062 215.59375 306.464844 C 220.5 305.761719 225.261719 306.464844 230.027344 306.464844 C 243.339844 306.601562 254.128906 301.136719 263.65625 292.3125 C 265.617188 290.488281 267.578125 288.386719 268.140625 285.863281 C 269.121094 281.382812 271.78125 278.4375 275.425781 276.058594 C 276.40625 275.355469 277.246094 274.515625 278.089844 273.675781 C 283.132812 269.191406 286.214844 263.585938 287.476562 257 C 288.035156 253.777344 287.898438 250.554688 287.898438 247.332031 C 287.898438 244.667969 288.597656 242.707031 290.839844 241.167969 C 295.324219 238.082031 298.40625 233.738281 300.085938 228.554688 C 300.789062 226.453125 301.910156 225.191406 304.152344 224.632812 C 308.636719 223.511719 312.699219 221.550781 315.78125 217.90625 C 316.761719 216.785156 318.164062 216.226562 319.425781 215.523438 C 322.507812 213.984375 325.449219 212.441406 328.113281 210.339844 C 333.4375 206.136719 336.660156 200.953125 337.078125 194.085938 C 337.5 187.359375 335.820312 180.914062 333.15625 174.890625 Z M 323.207031 203.332031 C 320.824219 205.15625 318.164062 206.554688 315.5 207.957031 C 313.820312 208.796875 311.996094 209.640625 310.738281 211.179688 C 308.496094 213.984375 305.550781 215.523438 302.1875 216.226562 C 297.144531 217.347656 294.203125 220.148438 292.800781 225.050781 C 291.679688 229.117188 289.15625 232.339844 285.65625 234.722656 C 281.453125 237.523438 279.769531 241.445312 279.910156 246.492188 C 280.050781 248.59375 279.910156 250.835938 279.769531 252.9375 C 279.347656 258.261719 277.386719 263.027344 273.324219 266.667969 C 271.222656 268.628906 268.980469 270.453125 266.738281 272.273438 C 264.214844 274.234375 262.394531 276.757812 261.554688 279.839844 C 260.855469 283.203125 258.890625 285.726562 256.230469 287.828125 C 247.542969 294.832031 238.015625 298.757812 226.664062 297.496094 C 221.199219 296.933594 215.875 297.496094 210.550781 298.335938 C 207.746094 298.757812 204.804688 299.175781 202.003906 299.316406 C 198.5 299.457031 195.417969 300.296875 192.472656 302.121094 C 189.113281 304.222656 185.328125 305.480469 181.40625 306.324219 C 176.640625 307.445312 172.015625 307.304688 167.671875 305.0625 C 162.066406 302.121094 156.183594 301.136719 149.878906 301.417969 C 146.234375 301.558594 142.449219 301.839844 138.667969 301.136719 C 135.304688 300.578125 132.503906 299.035156 130.539062 296.234375 C 128.71875 293.710938 126.898438 291.191406 125.214844 288.527344 C 122.554688 284.464844 119.050781 281.519531 114.566406 279.699219 C 107.839844 277.039062 102.375 272.695312 97.472656 267.371094 C 93.410156 263.027344 91.167969 258.121094 91.445312 252.097656 C 91.445312 249.996094 91.167969 248.03125 91.027344 245.929688 C 90.605469 240.1875 87.382812 236.683594 82.339844 234.582031 C 78.136719 232.757812 73.652344 231.917969 69.027344 231.5 C 62.582031 230.796875 57.957031 227.714844 54.875 222.109375 C 53.613281 220.007812 52.914062 217.765625 53.054688 215.242188 C 53.195312 213.003906 52.773438 210.898438 51.652344 209.078125 C 48.710938 204.875 48.007812 200.671875 48.007812 195.90625 C 47.867188 193.386719 48.289062 190.722656 49.128906 188.058594 C 50.109375 184.835938 50.53125 181.476562 50.53125 178.113281 C 50.25 171.804688 50.8125 165.640625 51.792969 159.476562 C 52.492188 154.429688 54.453125 149.949219 58.097656 146.445312 C 62.160156 142.519531 65.523438 138.175781 68.328125 133.414062 C 72.949219 125.847656 79.117188 120.242188 87.664062 117.4375 C 91.445312 116.179688 94.25 113.9375 95.789062 110.292969 C 98.171875 104.40625 103.078125 102.304688 108.820312 101.324219 C 110.644531 101.046875 112.464844 101.046875 114.285156 101.324219 C 118.070312 102.027344 121.433594 100.90625 124.796875 99.644531 C 126.898438 98.941406 128.296875 97.683594 128.71875 95.019531 C 129 92.496094 129.839844 89.976562 131.101562 87.59375 C 133.0625 83.949219 136.003906 81.847656 140.070312 81.007812 C 143.992188 80.167969 148.054688 80.167969 151.839844 81.289062 C 157.304688 82.828125 161.929688 81.707031 165.992188 77.503906 C 172.578125 70.917969 180.984375 68.675781 189.953125 67.976562 C 193.457031 67.695312 196.957031 68.398438 200.039062 70.078125 C 207.046875 74.140625 214.332031 74.5625 222.039062 72.742188 C 224.421875 72.179688 227.085938 71.898438 229.464844 71.757812 C 234.089844 71.480469 238.292969 72.878906 242.078125 75.542969 C 248.941406 80.308594 254.546875 86.050781 257.910156 93.757812 C 259.453125 97.121094 261.695312 98.941406 265.476562 99.644531 C 270.800781 100.625 275.707031 102.867188 280.75 105.109375 C 281.3125 105.390625 281.871094 105.667969 282.292969 106.089844 C 288.738281 110.855469 293.921875 116.738281 297.84375 123.886719 C 298.828125 125.566406 299.246094 127.386719 299.246094 129.347656 C 299.246094 133.972656 300.226562 135.515625 304.710938 137.054688 C 308.074219 138.316406 311.4375 139.578125 314.378906 141.820312 C 322.507812 147.84375 325.871094 155.832031 324.046875 165.78125 C 323.207031 170.125 323.207031 173.910156 325.449219 177.972656 C 327.691406 182.035156 328.671875 186.519531 328.953125 191.144531 C 329.234375 196.1875 327.132812 200.25 323.207031 203.332031 Z M 200.460938 230.515625 C 200.601562 235 198.078125 237.804688 194.015625 239.90625 C 189.113281 242.425781 184.347656 242.425781 179.582031 239.765625 C 179.441406 239.765625 179.304688 239.625 179.304688 239.625 C 175.519531 237.382812 174.398438 233.320312 173.976562 229.535156 C 173.558594 226.171875 176.359375 223.929688 179.441406 222.671875 C 183.226562 220.988281 187.007812 219.449219 191.214844 220.289062 C 192.894531 220.570312 194.4375 221.128906 195.835938 222.109375 C 199.058594 223.929688 200.882812 226.59375 200.460938 230.515625 Z M 149.316406 214.683594 C 154.921875 213.984375 158.003906 209.078125 156.601562 203.613281 C 155.203125 198.988281 152.257812 196.046875 147.496094 194.785156 C 142.589844 193.523438 137.265625 196.609375 135.867188 201.511719 C 134.042969 207.816406 136.566406 212.863281 142.171875 214.402344 C 143.570312 214.824219 144.972656 214.683594 145.8125 214.824219 C 147.496094 214.683594 148.335938 214.683594 149.316406 214.683594 Z M 220.359375 201.511719 C 217.414062 205.015625 217.835938 209.5 221.339844 212.300781 C 223.722656 214.261719 226.523438 215.382812 229.605469 215.523438 C 234.089844 215.804688 238.433594 212.300781 239.554688 207.675781 C 240.394531 204.035156 238.015625 200.25 234.230469 198.429688 C 232.6875 197.730469 231.007812 197.730469 228.484375 197.589844 C 225.542969 197.308594 222.601562 198.851562 220.359375 201.511719 Z M 220.359375 201.511719 " fill-opacity="1" fill-rule="nonzero"/></g></svg>