<svg xmlns="http://www.w3.org/2000/svg" xmlns:xlink="http://www.w3.org/1999/xlink" width="500" zoomAndPan="magnify" viewBox="0 0 375 374.999991" height="500" preserveAspectRatio="xMidYMid meet" version="1.0"><rect x="-37.5" width="450" fill="#ffffff" y="-37.499999" height="449.999989" fill-opacity="1"/><rect x="-37.5" width="450" fill="#ffffff" y="-37.499999" height="449.999989" fill-opacity="1"/><path fill="#000000" d="M 235.445312 59.230469 C 234.890625 59.238281 234.320312 59.265625 233.753906 59.3125 C 211.21875 63.207031 198.828125 87.066406 197.03125 108.109375 C 194.410156 127.203125 202.8125 151.742188 223.75 156.019531 C 226.785156 156.597656 229.941406 156.335938 232.910156 155.527344 C 258.121094 147.0625 269.402344 117.164062 265.757812 92.398438 C 264.699219 76.40625 252.65625 59.011719 235.445312 59.230469 Z M 139.902344 60.253906 C 125.890625 60.601562 114.976562 74.832031 112.757812 88.207031 C 108.074219 114.710938 120.113281 147.640625 147.6875 156.023438 C 150.269531 156.585938 152.941406 156.644531 155.550781 156.238281 C 174.1875 153.128906 182.082031 132.207031 181.304688 115.316406 C 180.742188 93.035156 169.183594 67.269531 146.078125 61.007812 C 143.964844 60.445312 141.90625 60.207031 139.902344 60.257812 Z M 296.5 135.527344 C 272.261719 136.980469 255.640625 161.199219 253.273438 183.8125 C 250.066406 200.125 258.75 221.941406 277.335938 223.242188 C 303.25 222.921875 320.929688 195.191406 321.664062 171.335938 C 323.300781 155.554688 314.019531 136.398438 296.5 135.527344 Z M 84.332031 140.902344 C 74.019531 140.8125 63.878906 147 60.507812 157.496094 C 51.515625 185.578125 69.570312 221.140625 99.273438 227.042969 C 111.667969 229.167969 122.558594 219.636719 125.632812 208.164062 C 132.148438 183.632812 118.769531 155.152344 96.128906 144.015625 C 92.4375 141.945312 88.367188 140.941406 84.332031 140.90625 Z M 193.003906 191.253906 C 172.785156 191.296875 152.25 201.570312 139.160156 216.863281 C 125.019531 234.6875 113.4375 255.429688 108.90625 277.925781 C 103.398438 294.117188 115.875 312.753906 133.164062 312.863281 C 153.957031 313.441406 171.832031 299.144531 192.511719 298.082031 C 210.054688 295.402344 225.765625 304.542969 241.539062 310.523438 C 254.96875 316.273438 273.523438 314.070312 280.382812 299.597656 C 285.773438 284.847656 277.835938 269.117188 271.261719 256.015625 C 257.847656 234.753906 243.476562 212.40625 221.488281 199.128906 C 212.671875 193.65625 202.875 191.234375 193.003906 191.253906 Z M 193.003906 191.253906 " fill-opacity="1" fill-rule="nonzero"/></svg>