 <svg
                  className="w-4 h-4 text-yellow-500 mr-1"
                  fill="#816F6B"
                  viewBox="0 0 20 20"
                  xmlns="http://www.w3.org/2000/svg"
                  stroke="#816F6B"
                  width="15px"
                  heigh="15px"
                >
                  <path d="M9.049 2.927a.998.998 0 011.902 0l1.45 4.455a1 1 0 00.95.69h4.702a1 1 0 01.588 1.81l-3.81 2.764a1 1 0 00-.364 1.118l1.45 4.455a1 1 0 01-1.539 1.118l-3.81-2.764a1 1 0 00-1.176 0l-3.81 2.764a1 1 0 01-1.539-1.118l1.45-4.455a1 1 0 00-.364-1.118L2.21 9.882a1 1 0 01.588-1.81h4.702a1 1 0 00.95-.69l1.45-4.455z"></path>
                </svg>