<svg xmlns="http://www.w3.org/2000/svg" xmlns:xlink="http://www.w3.org/1999/xlink" width="500" zoomAndPan="magnify" viewBox="0 0 375 374.999991" height="500" preserveAspectRatio="xMidYMid meet" version="1.0"><defs><clipPath id="25d62c17f9"><path d="M 21 41.230469 L 355 41.230469 L 355 333.730469 L 21 333.730469 Z M 21 41.230469 " clip-rule="nonzero"/></clipPath></defs><rect x="-37.5" width="450" fill="#ffffff" y="-37.499999" height="449.999989" fill-opacity="1"/><rect x="-37.5" width="450" fill="#ffffff" y="-37.499999" height="449.999989" fill-opacity="1"/><g clip-path="url(#25d62c17f9)"><path fill="#030505" d="M 172.214844 333.425781 C 156.160156 332.964844 139.949219 330.367188 124.808594 322.722656 C 111.351562 315.839844 98.351562 308.347656 87.339844 297.644531 C 73.421875 284.191406 65.011719 268.136719 61.648438 249.175781 C 61.035156 245.964844 60.273438 242.753906 59.964844 239.542969 C 59.660156 237.402344 58.742188 236.332031 56.753906 235.875 C 52.929688 234.957031 49.261719 233.582031 45.742188 231.59375 C 31.980469 224.253906 24.945312 212.175781 22.652344 197.191406 C 19.132812 174.714844 24.792969 154.074219 35.648438 134.65625 C 43.296875 121.046875 53.082031 109.425781 66.234375 100.863281 C 69.753906 98.570312 73.117188 95.816406 76.480469 93.523438 C 79.082031 91.691406 81.988281 90.007812 85.351562 89.855469 C 86.726562 89.855469 87.339844 89.089844 88.105469 88.171875 C 109.207031 65.542969 135.207031 51.9375 165.640625 46.738281 C 182.308594 43.832031 199.132812 41.539062 216.105469 41.996094 C 227.574219 42.304688 238.738281 44.289062 249.292969 49.183594 C 259.078125 53.769531 266.878906 60.191406 271.621094 70.132812 C 272.078125 71.046875 272.691406 71.8125 272.996094 72.730469 C 274.066406 75.484375 276.207031 76.859375 278.960938 77.46875 C 285.230469 78.847656 291.195312 80.679688 296.851562 83.738281 C 323.308594 98.113281 341.8125 119.058594 350.226562 148.414062 C 354.507812 163.398438 355.882812 178.691406 352.671875 193.980469 C 349.917969 207.28125 342.578125 217.984375 332.179688 226.699219 C 325.296875 232.359375 317.34375 233.734375 308.78125 232.816406 C 299.300781 231.898438 301.136719 231.289062 298.992188 239.390625 C 296.699219 247.953125 293.792969 256.363281 290.125 264.46875 C 286.300781 273.03125 280.949219 280.675781 274.21875 287.25 C 266.726562 294.589844 258.925781 301.46875 250.972656 308.195312 C 245.164062 313.089844 238.585938 316.605469 231.707031 319.664062 C 215.800781 326.851562 199.132812 331.589844 181.699219 333.121094 C 178.945312 333.273438 175.734375 333.273438 172.214844 333.425781 Z M 172.214844 333.425781 " fill-opacity="1" fill-rule="nonzero"/></g><path fill="#f4f6f1" d="M 343.957031 177.160156 C 344.71875 190.308594 340.742188 201.929688 332.332031 212.023438 C 330.191406 214.46875 328.050781 216.914062 325.296875 218.75 C 321.320312 221.65625 317.039062 222.726562 312.144531 222.265625 C 308.628906 221.960938 305.109375 221.808594 301.59375 221.808594 C 296.851562 221.65625 293.640625 224.101562 291.5 228.230469 C 290.429688 230.371094 289.816406 232.664062 289.207031 235.109375 C 287.066406 243.671875 284.3125 251.929688 280.796875 259.878906 C 277.582031 267.21875 273.148438 273.640625 267.492188 279.296875 C 259.996094 286.636719 252.199219 293.519531 244.246094 300.246094 C 238.128906 305.292969 230.941406 308.808594 223.601562 311.714844 C 206.167969 318.746094 188.273438 323.488281 169.308594 322.875 C 154.324219 322.417969 139.949219 319.207031 126.644531 312.171875 C 119.914062 308.65625 113.183594 304.984375 107.066406 300.550781 C 93.609375 290.917969 82.292969 279.296875 76.175781 263.398438 C 72.964844 254.988281 71.433594 246.273438 69.90625 237.554688 C 69.753906 236.640625 69.601562 235.570312 69.449219 234.652344 C 68.683594 230.675781 66.390625 228.078125 62.414062 227.007812 C 61.1875 226.699219 59.964844 226.242188 58.742188 225.9375 C 42.992188 221.503906 34.886719 210.644531 32.746094 194.746094 C 29.992188 173.949219 35.648438 155.296875 46.050781 137.710938 C 52.625 126.398438 61.34375 116.917969 71.894531 108.96875 C 76.480469 105.449219 81.527344 103.003906 86.882812 101.167969 C 90.09375 100.097656 93 98.417969 95.292969 95.816406 C 112.574219 77.011719 133.675781 64.472656 158.757812 58.816406 C 173.59375 55.453125 188.578125 53.617188 203.566406 52.546875 C 213.355469 51.78125 222.988281 52.394531 232.621094 54.382812 C 237.824219 55.453125 242.5625 57.289062 247.304688 59.734375 C 253.726562 63.097656 259.234375 67.53125 261.984375 74.257812 C 265.503906 82.667969 271.621094 86.796875 280.335938 88.480469 C 288.136719 90.007812 295.171875 93.832031 301.59375 98.417969 C 324.378906 114.320312 338.449219 135.570312 342.882812 163.09375 C 343.800781 167.988281 343.496094 172.574219 343.957031 177.160156 Z M 343.957031 177.160156 " fill-opacity="1" fill-rule="nonzero"/><path fill="#030505" d="M 144.078125 196.578125 C 143.464844 197.039062 143.3125 197.648438 143.3125 198.261719 C 142.851562 198.71875 143.160156 199.636719 142.242188 199.789062 C 142.242188 200.402344 141.9375 200.554688 141.476562 200.707031 C 141.324219 201.167969 141.019531 201.472656 140.558594 201.625 C 140.40625 202.082031 140.101562 202.390625 139.640625 202.542969 C 139.488281 203 139.335938 203.308594 138.722656 203.308594 L 139.03125 203.460938 L 138.878906 203.308594 C 138.417969 204.378906 137.347656 204.683594 136.277344 204.988281 L 136.429688 205.140625 L 136.277344 204.988281 C 135.972656 205.753906 135.207031 205.601562 134.59375 205.753906 L 134.75 205.90625 L 134.59375 205.753906 C 132.148438 206.824219 129.855469 208.199219 127.101562 206.671875 C 126.335938 206.058594 125.113281 206.824219 124.5 205.753906 C 124.042969 205.449219 123.125 205.601562 122.820312 204.835938 C 122.359375 204.835938 122.054688 204.378906 121.902344 204.070312 C 121.597656 203.917969 121.289062 203.613281 120.984375 203.308594 C 120.679688 203 120.371094 202.847656 120.21875 202.390625 C 119.609375 202.082031 119.761719 201.167969 119.300781 200.707031 C 117.925781 197.648438 117.160156 194.589844 118.691406 191.378906 L 118.691406 191.535156 C 119.300781 190.308594 119.457031 188.933594 120.527344 188.015625 C 120.527344 187.40625 120.832031 187.253906 121.289062 186.945312 C 121.597656 186.640625 121.75 186.335938 122.054688 186.027344 C 122.359375 185.722656 122.667969 185.417969 122.972656 185.265625 C 123.277344 184.957031 123.429688 184.5 124.042969 184.5 C 124.347656 183.734375 125.265625 183.890625 125.726562 183.582031 C 126.335938 182.511719 127.558594 183.277344 128.324219 182.664062 C 131.382812 181.75 134.59375 181.902344 137.808594 182.664062 C 138.265625 183.125 139.03125 182.972656 139.488281 183.429688 C 139.949219 183.890625 140.867188 183.734375 141.019531 184.5 C 141.476562 184.652344 141.78125 184.957031 141.9375 185.265625 C 142.394531 185.417969 142.699219 185.722656 142.851562 186.183594 C 144.996094 189.394531 145.148438 192.910156 144.078125 196.578125 Z M 219.929688 182.054688 C 220.234375 182.207031 220.386719 182.054688 220.542969 181.902344 C 224.210938 180.984375 228.035156 180.984375 231.707031 182.054688 C 232.316406 182.820312 233.691406 181.902344 234.152344 182.972656 C 234.765625 183.277344 235.527344 183.125 235.835938 183.890625 C 236.292969 183.890625 236.597656 184.195312 236.90625 184.652344 C 237.363281 184.804688 237.667969 185.113281 237.824219 185.570312 C 238.28125 185.875 238.585938 186.027344 238.585938 186.640625 C 239.351562 186.945312 239.199219 187.863281 239.503906 188.324219 C 240.574219 191.226562 240.421875 194.132812 238.433594 196.730469 C 238.128906 197.800781 237.667969 198.71875 236.75 199.332031 C 236.75 199.941406 236.445312 200.097656 235.835938 200.25 C 235.222656 201.167969 234.304688 201.625 233.234375 201.929688 C 232.621094 203 231.398438 202.238281 230.789062 202.847656 C 227.882812 203.765625 225.128906 203.765625 222.222656 202.847656 C 221.457031 202.238281 220.234375 202.847656 219.625 202.082031 C 218.398438 201.472656 217.175781 201.320312 216.257812 200.402344 C 214.882812 199.484375 213.507812 198.566406 212.894531 196.886719 C 212.128906 195.203125 210.601562 193.828125 211.976562 191.839844 L 211.976562 191.992188 C 212.589844 191.226562 211.824219 190.003906 212.894531 189.394531 C 213.355469 188.933594 213.046875 188.015625 213.964844 187.710938 C 213.964844 187.097656 214.269531 186.945312 214.730469 186.640625 C 214.882812 186.183594 215.1875 185.875 215.648438 185.722656 C 215.800781 185.265625 216.105469 184.957031 216.566406 184.804688 C 216.71875 184.347656 217.023438 184.042969 217.484375 184.042969 L 217.328125 183.886719 L 217.484375 184.042969 C 217.789062 182.820312 218.859375 182.359375 219.929688 182.054688 Z M 161.511719 245.203125 C 161.96875 245.203125 162.429688 245.046875 162.582031 244.4375 C 165.179688 243.0625 167.167969 240.921875 168.699219 238.472656 C 169.15625 238.320312 169.464844 238.015625 169.464844 237.554688 C 171.449219 235.417969 171.449219 235.417969 167.78125 234.5 C 166.40625 233.277344 165.179688 231.898438 163.347656 231.136719 C 163.191406 230.675781 162.886719 230.371094 162.429688 230.371094 C 162.429688 229.910156 162.121094 229.605469 161.664062 229.453125 C 161.511719 228.839844 161.203125 228.230469 160.59375 227.925781 C 160.59375 227.160156 160.441406 226.546875 159.828125 226.089844 C 159.523438 223.488281 159.980469 221.042969 160.59375 218.445312 C 161.203125 218.136719 161.511719 217.527344 161.664062 216.761719 C 162.121094 216.609375 162.429688 216.304688 162.429688 215.84375 C 162.886719 215.691406 163.191406 215.386719 163.191406 214.925781 C 163.652344 214.925781 163.957031 214.621094 164.109375 214.164062 C 165.179688 213.855469 166.097656 213.246094 166.710938 212.480469 C 167.628906 212.328125 168.546875 212.328125 169.15625 211.5625 C 173.132812 210.953125 177.261719 211.105469 181.238281 211.5625 C 182.308594 212.328125 183.378906 212.480469 184.601562 212.480469 C 185.0625 213.09375 185.671875 213.246094 186.4375 213.246094 C 186.898438 213.855469 187.507812 214.164062 188.121094 214.164062 C 188.578125 214.773438 189.039062 215.082031 189.800781 215.234375 C 189.957031 215.691406 190.261719 215.996094 190.71875 215.996094 C 190.875 216.457031 191.027344 216.761719 191.636719 216.914062 C 191.636719 217.375 191.945312 217.832031 192.402344 217.832031 C 192.554688 218.445312 192.707031 219.207031 193.320312 219.515625 C 193.777344 221.808594 193.625 223.949219 193.320312 226.242188 C 192.707031 226.699219 192.554688 227.3125 192.554688 227.925781 C 191.636719 228.535156 191.179688 229.453125 190.71875 230.371094 C 190.261719 230.371094 189.957031 230.675781 189.800781 231.136719 C 188.730469 231.59375 187.96875 232.050781 187.355469 232.96875 C 186.742188 233.121094 185.980469 233.121094 185.671875 233.886719 C 182.308594 234.652344 182.308594 234.652344 183.992188 237.554688 C 183.992188 238.320312 184.296875 238.933594 184.910156 239.238281 C 184.910156 239.695312 185.0625 240.15625 185.671875 240.308594 C 186.589844 242.296875 187.96875 243.824219 190.109375 244.589844 C 190.414062 245.355469 191.179688 245.507812 191.789062 245.507812 C 192.25 246.273438 192.859375 246.273438 193.625 246.273438 C 194.085938 247.035156 194.695312 247.035156 195.460938 247.035156 C 197.144531 248.257812 199.4375 247.953125 201.425781 248.871094 C 201.578125 249.328125 201.882812 249.636719 202.34375 249.636719 C 203.871094 252.082031 203.871094 254.679688 202.34375 257.128906 C 201.273438 257.738281 200.050781 258.351562 198.976562 258.808594 C 197.449219 258.503906 196.378906 258.808594 196.378906 260.644531 C 195.613281 261.101562 195.613281 261.714844 195.613281 262.480469 C 194.847656 262.785156 194.847656 263.550781 194.695312 264.160156 C 193.777344 264.773438 193.320312 265.691406 193.015625 266.761719 C 192.554688 266.914062 192.25 267.21875 192.25 267.679688 C 191.789062 267.679688 191.484375 267.984375 191.332031 268.59375 C 190.875 268.59375 190.566406 268.902344 190.414062 269.359375 C 189.800781 269.511719 189.191406 269.664062 188.886719 270.429688 C 188.121094 270.429688 187.507812 270.582031 187.050781 271.195312 C 183.378906 271.804688 179.710938 271.5 176.039062 271.195312 C 175.121094 270.277344 173.898438 270.429688 172.675781 270.277344 C 170.378906 269.207031 168.085938 267.984375 165.640625 266.914062 C 163.804688 265.230469 162.121094 263.550781 160.289062 261.867188 C 160.289062 261.410156 160.132812 260.949219 159.523438 260.796875 C 159.0625 258.960938 158.144531 258.65625 156.617188 260.03125 C 155.242188 260.03125 153.863281 260.03125 152.488281 260.03125 C 148.816406 256.667969 148.664062 255.445312 150.804688 250.859375 C 151.417969 250.707031 152.027344 250.398438 152.335938 249.789062 C 153.101562 249.789062 153.710938 249.789062 154.171875 249.023438 C 155.085938 249.023438 156.003906 249.023438 156.769531 248.105469 C 157.535156 248.105469 158.144531 248.105469 158.605469 247.34375 C 159.371094 247.34375 159.980469 247.1875 160.289062 246.425781 C 160.59375 246.117188 161.203125 245.8125 161.511719 245.203125 Z M 161.511719 245.203125 " fill-opacity="1" fill-rule="nonzero"/><path fill="#bc555d" d="M 180.933594 261.257812 C 176.957031 260.796875 172.980469 260.03125 169.617188 257.433594 C 167.78125 256.058594 167.78125 255.445312 169.617188 254.222656 C 171.910156 252.695312 173.898438 250.859375 175.734375 248.871094 C 176.957031 247.648438 177.722656 247.800781 178.945312 248.71875 C 181.085938 250.398438 183.074219 252.386719 185.519531 253.609375 C 186.132812 253.917969 186.4375 254.375 186.4375 254.988281 C 186.589844 257.738281 183.378906 261.257812 180.933594 261.257812 Z M 180.933594 261.257812 " fill-opacity="1" fill-rule="nonzero"/></svg>