<svg xmlns="http://www.w3.org/2000/svg" xmlns:xlink="http://www.w3.org/1999/xlink" width="500" zoomAndPan="magnify" viewBox="0 0 375 374.999991" height="500" preserveAspectRatio="xMidYMid meet" version="1.0"><defs><clipPath id="970ad7c4ba"><path d="M 59 77 L 316.453125 77 L 316.453125 298 L 59 298 Z M 59 77 " clip-rule="nonzero"/></clipPath></defs><rect x="-37.5" width="450" fill="#ffffff" y="-37.499999" height="449.999989" fill-opacity="1"/><rect x="-37.5" width="450" fill="#ffffff" y="-37.499999" height="449.999989" fill-opacity="1"/><g clip-path="url(#970ad7c4ba)"><path fill="#030505" d="M 153.050781 292.898438 C 149.074219 292.898438 145.820312 293.019531 142.445312 292.292969 C 138.46875 291.449219 135.214844 289.519531 132.566406 286.386719 C 130.515625 283.976562 128.828125 281.441406 127.140625 278.789062 C 125.453125 276.257812 123.40625 274.449219 120.632812 273.246094 C 114.007812 270.472656 108.464844 266.25 103.644531 260.945312 C 99.304688 256.246094 96.535156 250.820312 96.535156 244.1875 C 96.535156 242.378906 96.894531 238.160156 96.894531 236.351562 C 97.015625 234.058594 95.8125 232.734375 93.761719 231.890625 C 90.628906 230.804688 87.375 230.203125 84.121094 229.839844 C 76.167969 228.875 69.78125 227.1875 65.925781 220.4375 C 64.359375 217.664062 63.394531 214.769531 63.515625 211.515625 C 63.515625 210.308594 63.273438 209.34375 62.671875 208.257812 C 59.539062 202.109375 58.453125 195.597656 60.261719 188.96875 C 62.070312 182.214844 63.757812 181.734375 63.996094 175.945312 C 64.238281 172.089844 62.550781 163.890625 63.273438 160.152344 C 64.238281 155.207031 65.324219 149.058594 70.023438 147.128906 C 75.324219 145.082031 76.410156 139.777344 79.0625 135.675781 C 83.640625 128.441406 89.90625 126.632812 98.222656 123.738281 C 100.027344 123.136719 101.234375 118.554688 101.957031 116.746094 C 105.449219 109.273438 111.835938 106.257812 119.671875 105.535156 C 122.320312 105.292969 125.09375 105.414062 127.746094 105.777344 C 129.070312 106.015625 129.550781 105.535156 129.914062 104.328125 C 130.15625 102.882812 130.757812 101.554688 131.238281 100.230469 C 134.132812 92.511719 139.792969 88.535156 147.867188 87.8125 C 151.363281 87.449219 154.976562 87.570312 158.351562 88.535156 C 160.640625 89.257812 162.207031 88.535156 163.894531 87.085938 C 172.089844 79.492188 181.972656 76.71875 192.9375 77.082031 C 196.3125 77.199219 199.445312 78.285156 202.335938 79.972656 C 205.832031 81.902344 209.445312 82.503906 213.421875 81.660156 C 216.4375 81.058594 219.570312 80.699219 222.582031 80.457031 C 228.246094 79.972656 233.425781 81.542969 238.125 84.675781 C 244.996094 89.257812 250.539062 95.046875 254.152344 102.398438 C 254.875 103.726562 255.597656 104.328125 257.046875 104.691406 C 261.625 105.777344 265.84375 107.585938 270.179688 109.511719 C 271.386719 110.117188 272.589844 110.71875 273.675781 111.5625 C 279.699219 116.144531 284.640625 121.691406 288.375 128.203125 C 289.703125 130.492188 290.785156 132.78125 290.90625 135.433594 C 291.027344 136.761719 291.628906 137.363281 292.835938 137.847656 C 295.367188 138.691406 297.777344 140.015625 299.945312 141.585938 C 307.898438 146.890625 311.875 154.484375 312.71875 163.890625 C 312.960938 166.058594 312.476562 168.230469 311.996094 170.398438 C 311.394531 172.691406 311.875 174.5 312.71875 176.667969 C 315.007812 181.855469 316.453125 187.398438 316.09375 193.1875 C 315.730469 199.09375 312.960938 203.554688 308.378906 207.171875 C 306.089844 208.980469 303.558594 210.308594 300.910156 211.632812 C 299.824219 212.238281 298.621094 212.71875 297.777344 213.683594 C 295.125 216.820312 291.628906 218.507812 287.773438 219.472656 C 285.847656 219.953125 284.882812 221.039062 284.28125 222.847656 C 282.832031 227.308594 280.183594 231.046875 276.328125 233.699219 C 274.398438 235.023438 273.796875 236.710938 273.796875 239.003906 C 273.796875 241.777344 273.917969 244.550781 273.433594 247.324219 C 272.351562 252.988281 269.699219 257.8125 265.359375 261.671875 C 264.636719 262.394531 263.914062 263.117188 263.070312 263.71875 C 259.9375 265.769531 257.648438 268.300781 256.804688 272.160156 C 256.324219 274.328125 254.636719 276.136719 252.949219 277.707031 C 244.753906 285.300781 235.476562 290.003906 224.027344 289.882812 C 219.929688 289.882812 215.832031 289.28125 211.617188 289.882812 C 207.15625 290.484375 202.578125 291.210938 198.117188 291.449219 C 196.914062 291.449219 195.707031 292.175781 194.746094 292.777344 C 189.925781 295.550781 184.742188 297.117188 179.199219 297.839844 C 175.222656 298.324219 171.246094 297.71875 167.75 295.910156 C 162.8125 293.257812 157.75 292.054688 153.050781 292.898438 Z M 153.050781 292.898438 " fill-opacity="1" fill-rule="nonzero"/></g><path fill="#f4f6f1" d="M 67.492188 194.753906 C 67.371094 192.585938 67.734375 190.292969 68.457031 188.003906 C 69.300781 185.230469 71.589844 182.09375 71.589844 179.203125 C 70.867188 171.96875 69.902344 168.710938 70.746094 163.40625 C 70.988281 160.632812 70.023438 154.726562 76.167969 152.195312 C 81.230469 150.386719 82.554688 145.082031 84.964844 140.980469 C 88.941406 134.472656 93.761719 133.867188 101.113281 131.457031 C 104.367188 130.371094 107.257812 124.222656 108.585938 121.085938 C 110.632812 116.023438 114.851562 114.214844 119.792969 113.371094 C 121.359375 113.128906 122.925781 113.128906 124.492188 113.371094 C 127.746094 113.972656 130.636719 113.007812 133.527344 111.925781 C 135.335938 111.320312 136.542969 110.238281 136.902344 107.945312 C 137.144531 105.777344 137.867188 103.605469 138.953125 101.554688 C 140.636719 98.421875 143.167969 96.613281 146.664062 95.890625 C 150.039062 95.164062 153.53125 95.164062 156.785156 96.128906 C 161.484375 97.457031 165.460938 96.492188 168.957031 92.875 C 174.621094 87.207031 181.851562 85.277344 189.5625 84.675781 C 192.574219 84.433594 195.589844 85.039062 198.238281 86.484375 C 204.265625 89.980469 210.53125 90.34375 217.160156 88.773438 C 219.207031 88.292969 221.496094 88.050781 223.546875 87.929688 C 227.523438 87.691406 231.136719 88.894531 234.390625 91.1875 C 240.296875 95.285156 245.117188 100.230469 248.007812 106.859375 C 249.332031 109.753906 251.261719 111.320312 254.515625 111.925781 C 259.09375 112.769531 263.3125 114.699219 267.648438 116.625 C 268.132812 116.867188 268.613281 117.109375 268.976562 117.46875 C 274.519531 121.570312 278.976562 126.632812 282.351562 132.78125 C 283.195312 134.230469 283.554688 135.796875 283.554688 137.484375 C 283.554688 141.464844 284.398438 142.789062 288.257812 144.117188 C 291.148438 145.203125 294.039062 146.285156 296.570312 148.214844 C 303.558594 153.398438 306.453125 160.273438 304.886719 168.832031 C 304.164062 172.570312 304.164062 175.824219 306.089844 179.320312 C 308.019531 182.820312 308.863281 186.675781 309.101562 190.65625 C 309.34375 194.996094 307.535156 198.492188 304.164062 201.144531 C 302.113281 202.710938 299.824219 203.917969 297.535156 205.125 C 296.089844 205.847656 294.523438 206.570312 293.4375 207.898438 C 291.511719 210.308594 288.980469 211.632812 286.085938 212.238281 C 281.75 213.203125 279.21875 215.613281 278.011719 219.832031 C 277.050781 223.328125 274.878906 226.101562 271.867188 228.152344 C 268.253906 230.5625 266.804688 233.941406 266.925781 238.28125 C 267.046875 240.089844 266.925781 242.019531 266.804688 243.824219 C 266.445312 248.40625 264.757812 252.507812 261.261719 255.640625 C 259.457031 257.328125 257.527344 258.898438 255.597656 260.464844 C 253.429688 262.152344 251.863281 264.324219 251.140625 266.976562 C 250.539062 269.867188 248.851562 272.039062 246.5625 273.847656 C 239.089844 279.875 230.894531 283.25 221.136719 282.167969 C 216.4375 281.683594 211.855469 282.167969 207.277344 282.890625 C 204.867188 283.25 202.335938 283.613281 199.925781 283.734375 C 196.914062 283.855469 194.261719 284.578125 191.730469 286.144531 C 188.839844 287.953125 185.585938 289.039062 182.210938 289.761719 C 178.113281 290.726562 174.136719 290.605469 170.402344 288.675781 C 165.582031 286.144531 160.523438 285.300781 155.097656 285.542969 C 151.964844 285.664062 148.710938 285.90625 145.457031 285.300781 C 142.566406 284.820312 140.15625 283.492188 138.46875 281.082031 C 136.902344 278.910156 135.335938 276.742188 133.890625 274.449219 C 131.601562 270.953125 128.585938 268.421875 124.730469 266.855469 C 118.949219 264.5625 114.246094 260.828125 110.03125 256.246094 C 106.535156 252.507812 104.609375 248.285156 104.847656 243.101562 C 104.847656 241.292969 104.609375 239.605469 104.488281 237.796875 C 104.125 232.855469 102.078125 227.308594 97.738281 225.5 C 94.125 223.933594 90.265625 223.207031 86.289062 222.847656 C 80.746094 222.246094 76.046875 222.125 73.398438 217.300781 C 72.3125 215.492188 71.710938 213.5625 71.832031 211.394531 C 71.949219 209.464844 71.589844 207.65625 70.625 206.089844 C 68.09375 202.472656 67.492188 198.855469 67.492188 194.753906 Z M 67.492188 194.753906 " fill-opacity="1" fill-rule="nonzero"/><path fill="#030505" d="M 194.625 231.527344 C 196.191406 231.890625 197.757812 232.132812 198.960938 232.371094 C 202.214844 232.976562 206.554688 231.527344 207.519531 235.867188 C 208.121094 238.640625 206.191406 242.015625 203.300781 242.5 C 202.214844 242.621094 201.132812 242.5 200.289062 243.222656 C 199.566406 243.945312 199.203125 245.03125 198.601562 245.875 C 197.15625 247.804688 194.984375 248.769531 192.816406 249.613281 C 190.046875 250.699219 187.03125 251.664062 184.019531 251.542969 C 181.128906 251.300781 178.355469 250.214844 175.945312 248.769531 C 174.742188 248.046875 173.65625 247.203125 172.691406 246.238281 C 171.726562 245.152344 171.003906 243.824219 170.042969 242.742188 C 169.320312 241.777344 168.234375 241.414062 167.148438 241.171875 C 163.773438 240.570312 161.484375 235.386719 164.859375 233.09375 C 165.824219 232.492188 166.910156 232.25 167.871094 231.890625 C 169.078125 231.40625 170.160156 230.683594 171.246094 229.960938 C 172.210938 229.359375 173.65625 228.875 174.257812 227.910156 C 174.980469 226.945312 174.257812 225.863281 173.65625 225.136719 C 172.933594 224.171875 172.210938 223.089844 172.089844 221.882812 C 171.847656 220.554688 172.332031 219.109375 172.8125 217.785156 C 173.65625 215.734375 175.222656 213.925781 177.390625 213.203125 C 178.476562 212.839844 179.683594 212.597656 180.886719 212.359375 C 182.210938 212.117188 183.660156 211.753906 185.105469 211.996094 C 186.308594 212.117188 187.394531 212.71875 188.480469 213.324219 C 189.683594 213.925781 190.890625 214.527344 191.851562 215.371094 C 193.539062 216.820312 194.984375 218.867188 194.984375 221.28125 C 194.984375 223.328125 193.902344 225.5 192.214844 226.707031 C 190.769531 227.789062 189.5625 228.515625 191.25 229.960938 C 192.214844 230.804688 193.417969 231.285156 194.625 231.527344 Z M 156.0625 202.472656 C 156.90625 200.542969 157.027344 198.492188 156.183594 196.683594 C 155.460938 194.996094 154.015625 193.910156 152.328125 193.1875 C 145.339844 190.171875 133.289062 198.371094 140.277344 205.605469 C 142.324219 207.777344 145.578125 208.136719 148.472656 207.535156 C 151.484375 206.933594 154.859375 205.246094 156.0625 202.472656 Z M 214.265625 193.550781 C 213.542969 194.03125 212.941406 194.515625 212.339844 195.117188 C 203.179688 204.882812 224.148438 215.128906 227.523438 202.953125 C 228.605469 198.855469 225.234375 195.71875 221.980469 193.910156 C 220.414062 193.066406 218.726562 192.34375 216.917969 192.585938 C 215.953125 192.707031 215.109375 193.066406 214.265625 193.550781 Z M 214.265625 193.550781 " fill-opacity="1" fill-rule="nonzero"/><path fill="#bd555d" d="M 184.621094 243.464844 C 181.007812 243.101562 178.476562 241.65625 176.546875 239.125 C 175.824219 238.160156 175.824219 237.195312 176.910156 236.472656 C 178.234375 235.507812 180.285156 234.785156 181.730469 234.421875 C 183.296875 233.941406 184.140625 233.335938 185.464844 233.941406 C 187.753906 234.902344 190.40625 237.074219 192.574219 238.160156 C 193.902344 238.761719 192.816406 240.449219 191.613281 241.171875 C 189.441406 242.378906 186.910156 243.34375 184.621094 243.464844 Z M 184.621094 243.464844 " fill-opacity="1" fill-rule="nonzero"/></svg>